M48
METRIC,TZ
VER,1
FMAT,2
DETECT,ON
ATC,ON
T1C1.0000
T2C0.8890
T3C0.9949
T4C1.0160
T5C0.9000
T6C0.8000
T7C1.1854
T8C1.1810
%
T1
X185420Y430784
Y405384
Y379984
Y354584
Y329184
Y303784
Y278384
Y252984
Y227584
Y202184
Y176784
Y151384
Y125984
Y100584
Y75184
X414020Y430784
Y405384
Y379984
Y354584
Y329184
Y303784
Y278384
Y252984
Y227584
Y202184
Y176784
Y151384
Y125984
Y100584
Y75184
T2
X50800Y462280
Y436880
Y411480
Y513080
Y487680
Y538480
Y589280
Y563880
Y614680
X558800Y538480
Y563880
Y589280
Y487680
Y513080
Y462280
Y411480
Y436880
Y386080
X299720Y579120
Y553720
X274320Y579120
Y553720
X248920
X325120Y579120
Y553720
X411480Y628904
X76200Y289560
X50800
X63500Y276860
X121920Y147320
Y121920
X134620Y134620
X528320Y265684
X553720
X502920
X133202Y257281
Y282681
X116840Y391160
T3
X50800Y386080
X558800Y614680
X248920Y579120
X411480Y603504
X579120Y265684
X142240Y391160
T4
X153670Y615950
Y641350
X140970Y628650
T5
X121920Y566720
Y426720
X20320Y330574
Y190574
X30748Y165682
Y25682
X60960Y27640
Y167640
X353453Y665926
X213453
X353453Y629426
X213453
X523540Y228600
Y88600
X493060Y228600
Y88600
X103555Y55880
X138555
X462280Y203200
Y101600
T6
X136840Y187960
X116840
T7
X569595Y158115
Y132715
Y183515
T8
X472440Y35560
X447040
M30
