G04 Generated by Ultiboard 14.0 *
%FSLAX34Y34*%
%MOMM*%

%ADD10C,0.0001*%
%ADD11C,0.2032*%
%ADD12C,0.1000*%
%ADD13C,0.1552*%
%ADD14C,0.2000*%
%ADD15C,0.0010*%
%ADD16C,0.1556*%
%ADD17C,0.1500*%
%ADD18C,0.2540*%
%ADD19C,0.0556*%


G04 ColorRGB FFFF00 for the following layer *
%LNSilkscreen Top*%
%LPD*%
G54D10*
G54D11*
X185420Y506984D02*
X185420Y-1016D01*
X414020Y-1016D01*
X414020Y506984D01*
X294720Y506984D02*
X294739Y506548D01*
X294796Y506116D01*
X294890Y505690D01*
X295022Y505274D01*
X295188Y504871D01*
X295390Y504484D01*
X295624Y504116D01*
X295890Y503770D01*
X296184Y503448D01*
X296506Y503154D01*
X296852Y502888D01*
X297220Y502654D01*
X297607Y502452D01*
X298010Y502286D01*
X298426Y502154D01*
X298852Y502060D01*
X299284Y502003D01*
X299720Y501984D01*
X300156Y502003D01*
X300588Y502060D01*
X301014Y502154D01*
X301430Y502286D01*
X301833Y502452D01*
X302220Y502654D01*
X302588Y502888D01*
X302934Y503154D01*
X303256Y503448D01*
X303550Y503770D01*
X303816Y504116D01*
X304050Y504484D01*
X304252Y504871D01*
X304418Y505274D01*
X304550Y505690D01*
X304644Y506116D01*
X304701Y506548D01*
X304720Y506984D01*
X414020Y506984D02*
X304720Y506984D01*
X294720Y506984D02*
X185420Y506984D01*
X75384Y370981D02*
X76895Y373803D01*
X76895Y376626D01*
X75384Y379448D01*
X69336Y379448D01*
X70848Y385092D02*
X69336Y387914D01*
X76895Y387914D01*
X76895Y383681D02*
X76895Y392148D01*
X70848Y396381D02*
X69336Y399203D01*
X69336Y402026D01*
X70848Y404848D01*
X75384Y404848D01*
X76895Y402026D01*
X76895Y399203D01*
X75384Y396381D01*
X70848Y396381D01*
X70848Y404848D02*
X75384Y396381D01*
X63500Y627380D02*
X63500Y373380D01*
X38100Y398780D02*
X38100Y494030D01*
X38100Y373380D02*
X38100Y392430D01*
X63500Y373380D02*
X38100Y373380D01*
X38100Y396663D02*
X46567Y396663D01*
X40217Y394547D02*
X38100Y396663D01*
X38100Y627380D02*
X38100Y502497D01*
X38100Y496147D02*
X38100Y500380D01*
X42333Y496147D02*
X38100Y496147D01*
X42333Y496147D02*
X42333Y498263D01*
X46567Y496147D02*
X46567Y498263D01*
X46559Y498447D01*
X46535Y498631D01*
X46495Y498811D01*
X46439Y498987D01*
X46368Y499158D01*
X46283Y499321D01*
X46184Y499477D01*
X46071Y499624D01*
X45947Y499760D01*
X45811Y499884D01*
X45664Y499997D01*
X45508Y500096D01*
X45345Y500181D01*
X45174Y500252D01*
X44998Y500308D01*
X44818Y500348D01*
X44634Y500372D01*
X44450Y500380D01*
X44266Y500372D01*
X44082Y500348D01*
X43902Y500308D01*
X43726Y500252D01*
X43555Y500181D01*
X43392Y500096D01*
X43236Y499997D01*
X43089Y499884D01*
X42953Y499760D01*
X42829Y499624D01*
X42716Y499477D01*
X42617Y499321D01*
X42532Y499158D01*
X42461Y498987D01*
X42405Y498811D01*
X42365Y498631D01*
X42341Y498447D01*
X42333Y498263D01*
X38100Y627380D02*
X63500Y627380D01*
X534216Y623429D02*
X532705Y620607D01*
X532705Y617784D01*
X534216Y614962D01*
X540264Y614962D01*
X540264Y603673D02*
X540264Y607907D01*
X538752Y610729D01*
X535728Y610729D01*
X534216Y610729D01*
X532705Y607907D01*
X532705Y605084D01*
X534216Y602262D01*
X535728Y602262D01*
X537240Y605084D01*
X537240Y607907D01*
X535728Y610729D01*
X546100Y373380D02*
X546100Y627380D01*
X571500Y601980D02*
X571500Y506730D01*
X571500Y627380D02*
X571500Y608330D01*
X546100Y627380D02*
X571500Y627380D01*
X571500Y604097D02*
X563033Y604097D01*
X569383Y606213D02*
X571500Y604097D01*
X571500Y373380D02*
X571500Y498263D01*
X571500Y504613D02*
X571500Y500380D01*
X567267Y504613D02*
X571500Y504613D01*
X567267Y504613D02*
X567267Y502497D01*
X563033Y504613D02*
X563033Y502497D01*
X563041Y502313D01*
X563065Y502129D01*
X563105Y501949D01*
X563161Y501773D01*
X563232Y501602D01*
X563317Y501439D01*
X563416Y501283D01*
X563529Y501136D01*
X563653Y501000D01*
X563789Y500876D01*
X563936Y500763D01*
X564092Y500664D01*
X564255Y500579D01*
X564426Y500508D01*
X564602Y500452D01*
X564782Y500412D01*
X564966Y500388D01*
X565150Y500380D01*
X565334Y500388D01*
X565518Y500412D01*
X565698Y500452D01*
X565874Y500508D01*
X566045Y500579D01*
X566208Y500664D01*
X566364Y500763D01*
X566511Y500876D01*
X566647Y501000D01*
X566771Y501136D01*
X566884Y501283D01*
X566983Y501439D01*
X567068Y501602D01*
X567139Y501773D01*
X567195Y501949D01*
X567235Y502129D01*
X567259Y502313D01*
X567267Y502497D01*
X571500Y373380D02*
X546100Y373380D01*
X164959Y663182D02*
X162137Y664694D01*
X159314Y664694D01*
X156492Y663182D01*
X156492Y658646D01*
X159314Y657134D01*
X162137Y657134D01*
X164959Y658646D01*
X164959Y663182D01*
X159314Y663182D02*
X156492Y664694D01*
X150848Y657890D02*
X149437Y657134D01*
X146614Y657134D01*
X143792Y658646D01*
X143792Y660158D01*
X145203Y660914D01*
X143792Y661670D01*
X143792Y663182D01*
X146614Y664694D01*
X149437Y664694D01*
X150848Y663938D01*
X149437Y660914D02*
X145203Y660914D01*
X168656Y647831D02*
X166927Y649065D01*
X165098Y650142D01*
X163181Y651057D01*
X161192Y651800D01*
X159146Y652368D01*
X157058Y652755D01*
X154944Y652958D01*
X152820Y652977D01*
X150703Y652810D01*
X148609Y652460D01*
X146553Y651928D01*
X144551Y651219D01*
X142619Y650339D01*
X140771Y649293D01*
X139021Y648090D01*
X137382Y646739D01*
X135868Y645251D01*
X134489Y643636D01*
X133255Y641907D01*
X132178Y640078D01*
X131263Y638161D01*
X130520Y636172D01*
X129952Y634126D01*
X129565Y632038D01*
X129362Y629924D01*
X129343Y627800D01*
X129510Y625683D01*
X129860Y623589D01*
X130392Y621533D01*
X131101Y619531D01*
X131981Y617599D01*
X133027Y615751D01*
X134230Y614001D01*
X135581Y612362D01*
X137069Y610848D01*
X138684Y609469D01*
X140413Y608235D01*
X142242Y607158D01*
X144159Y606243D01*
X146148Y605500D01*
X148194Y604932D01*
X150282Y604545D01*
X152396Y604342D01*
X154520Y604323D01*
X156637Y604490D01*
X158731Y604840D01*
X160787Y605372D01*
X162789Y606081D01*
X164721Y606961D01*
X166569Y608007D01*
X168319Y609210D01*
X168656Y609469D01*
X173990Y623570D02*
X173990Y608330D01*
X168910Y647700D02*
X168910Y609600D01*
X176530Y648970D02*
X179070Y646430D01*
X173990Y648970D02*
X176530Y648970D01*
X171450Y646430D02*
X173990Y648970D01*
X171450Y638810D02*
X173990Y641350D01*
X171450Y636270D02*
X171450Y638810D01*
X173990Y641350D02*
X176530Y641350D01*
X173990Y641350D02*
X171450Y643890D01*
X171450Y646430D01*
X176530Y633730D02*
X173990Y633730D01*
X179070Y636270D02*
X176530Y633730D01*
X173990Y633730D02*
X171450Y636270D01*
X171450Y623570D02*
X176530Y623570D01*
X173990Y608330D02*
X176530Y610870D01*
X120650Y626110D02*
X128270Y633730D01*
X128270Y636270D02*
X120650Y636270D01*
X123190Y621030D02*
X120650Y623570D01*
X125730Y621030D02*
X123190Y621030D01*
X128270Y633730D02*
X128270Y636270D01*
X128270Y623570D02*
X125730Y621030D01*
X120650Y623570D02*
X120650Y626110D01*
X152920Y487716D02*
X142920Y487716D01*
X142920Y491698D01*
X144920Y493689D01*
X145920Y493689D01*
X147920Y491698D01*
X147920Y487716D01*
X147920Y488711D02*
X152920Y493689D01*
X148920Y502649D02*
X148920Y496676D01*
X142920Y501653D01*
X152920Y501653D01*
X152920Y500658D02*
X152920Y502649D01*
X51320Y251570D02*
X41320Y251570D01*
X41320Y255552D01*
X43320Y257543D01*
X44320Y257543D01*
X46320Y255552D01*
X46320Y251570D01*
X46320Y252565D02*
X51320Y257543D01*
X42320Y261525D02*
X41320Y262521D01*
X41320Y264512D01*
X43320Y266503D01*
X45320Y266503D01*
X46320Y265507D01*
X47320Y266503D01*
X49320Y266503D01*
X51320Y264512D01*
X51320Y262521D01*
X50320Y261525D01*
X46320Y262521D02*
X46320Y265507D01*
X61748Y86678D02*
X51748Y86678D01*
X51748Y90660D01*
X53748Y92651D01*
X54748Y92651D01*
X56748Y90660D01*
X56748Y86678D01*
X56748Y87673D02*
X61748Y92651D01*
X53748Y95638D02*
X51748Y97629D01*
X51748Y99620D01*
X53748Y101611D01*
X54748Y101611D01*
X61748Y95638D01*
X61748Y101611D01*
X60748Y101611D01*
X29960Y106644D02*
X39960Y106644D01*
X39960Y102662D01*
X37960Y100671D01*
X36960Y100671D01*
X34960Y102662D01*
X34960Y106644D01*
X34960Y105649D02*
X29960Y100671D01*
X37960Y96689D02*
X39960Y94698D01*
X29960Y94698D01*
X29960Y97684D02*
X29960Y91711D01*
X82040Y306143D02*
X45027Y306143D01*
X40750Y292710D02*
X40394Y290710D01*
X40213Y288686D01*
X40210Y286654D01*
X40383Y284629D01*
X40733Y282628D01*
X41255Y280664D01*
X41947Y278754D01*
X42803Y276911D01*
X43816Y275149D01*
X44978Y273483D01*
X46282Y271924D01*
X47716Y270485D01*
X49270Y269176D01*
X50933Y268008D01*
X52691Y266989D01*
X54531Y266127D01*
X56439Y265429D01*
X58401Y264900D01*
X60401Y264543D01*
X62425Y264363D01*
X64457Y264359D01*
X66481Y264533D01*
X68483Y264882D01*
X70447Y265405D01*
X72357Y266097D01*
X74200Y266952D01*
X75962Y267965D01*
X77628Y269128D01*
X79187Y270431D01*
X80626Y271866D01*
X81935Y273420D01*
X83103Y275082D01*
X84122Y276840D01*
X84984Y278680D01*
X85682Y280589D01*
X86211Y282550D01*
X86567Y284551D01*
X86748Y286575D01*
X86751Y288606D01*
X86578Y290631D01*
X86228Y292633D01*
X86200Y292760D01*
X123809Y146960D02*
X121818Y144960D01*
X119827Y144960D01*
X117836Y146960D01*
X117836Y152960D01*
X119827Y154960D01*
X121818Y154960D01*
X123809Y152960D01*
X127791Y152960D02*
X129782Y154960D01*
X129782Y144960D01*
X126796Y144960D02*
X132769Y144960D01*
X100840Y187960D02*
G75*
D01*
G02X100840Y187960I25000J0*
G01*
X105337Y153160D02*
X105337Y116147D01*
X118770Y111870D02*
X120770Y111514D01*
X122794Y111333D01*
X124826Y111330D01*
X126851Y111503D01*
X128852Y111853D01*
X130816Y112375D01*
X132726Y113067D01*
X134569Y113923D01*
X136331Y114936D01*
X137997Y116098D01*
X139556Y117402D01*
X140995Y118836D01*
X142304Y120390D01*
X143472Y122053D01*
X144491Y123811D01*
X145353Y125651D01*
X146051Y127559D01*
X146580Y129521D01*
X146937Y131521D01*
X147117Y133545D01*
X147121Y135577D01*
X146947Y137601D01*
X146598Y139603D01*
X146075Y141567D01*
X145383Y143477D01*
X144528Y145320D01*
X143515Y147082D01*
X142352Y148748D01*
X141049Y150307D01*
X139614Y151746D01*
X138060Y153055D01*
X136398Y154223D01*
X134640Y155242D01*
X132800Y156104D01*
X130891Y156802D01*
X128930Y157331D01*
X126929Y157687D01*
X124905Y157868D01*
X122874Y157871D01*
X120849Y157698D01*
X118847Y157348D01*
X118720Y157320D01*
X274449Y634926D02*
X274449Y644926D01*
X278431Y644926D01*
X280422Y642926D01*
X280422Y641926D01*
X278431Y639926D01*
X274449Y639926D01*
X275444Y639926D02*
X280422Y634926D01*
X287391Y634926D02*
X285400Y634926D01*
X283409Y636926D01*
X283409Y638926D01*
X284404Y639926D01*
X283409Y640926D01*
X283409Y642926D01*
X285400Y644926D01*
X287391Y644926D01*
X289382Y642926D01*
X289382Y640926D01*
X288386Y639926D01*
X289382Y638926D01*
X289382Y636926D01*
X287391Y634926D01*
X284404Y639926D02*
X288386Y639926D01*
X274449Y598426D02*
X274449Y608426D01*
X278431Y608426D01*
X280422Y606426D01*
X280422Y605426D01*
X278431Y603426D01*
X274449Y603426D01*
X275444Y603426D02*
X280422Y598426D01*
X289382Y608426D02*
X283409Y608426D01*
X283409Y604426D01*
X287391Y604426D01*
X289382Y602426D01*
X289382Y600426D01*
X287391Y598426D01*
X283409Y598426D01*
X554540Y149596D02*
X544540Y149596D01*
X544540Y153578D01*
X546540Y155569D01*
X547540Y155569D01*
X549540Y153578D01*
X549540Y149596D01*
X549540Y150591D02*
X554540Y155569D01*
X544540Y163533D02*
X544540Y160547D01*
X546540Y158556D01*
X550540Y158556D01*
X552540Y158556D01*
X554540Y160547D01*
X554540Y162538D01*
X552540Y164529D01*
X550540Y164529D01*
X548540Y162538D01*
X548540Y160547D01*
X550540Y158556D01*
X524060Y149596D02*
X514060Y149596D01*
X514060Y153578D01*
X516060Y155569D01*
X517060Y155569D01*
X519060Y153578D01*
X519060Y149596D01*
X519060Y150591D02*
X524060Y155569D01*
X524060Y161542D02*
X519060Y161542D01*
X516060Y164529D01*
X514060Y164529D01*
X514060Y158556D01*
X516060Y158556D01*
X121586Y109880D02*
X123577Y111880D01*
X125568Y111880D01*
X127559Y109880D01*
X127559Y103880D01*
X125568Y101880D01*
X123577Y101880D01*
X121586Y103880D01*
X118599Y103880D02*
X116608Y101880D01*
X114617Y101880D01*
X112626Y103880D01*
X112626Y104880D01*
X118599Y111880D01*
X112626Y111880D01*
X112626Y110880D01*
X80555Y54880D02*
G75*
D01*
G02X80555Y54880I40000J0*
G01*
X111753Y218425D02*
X111753Y210866D01*
X120220Y210866D01*
X132920Y210866D02*
X124453Y210866D01*
X124453Y214645D01*
X124453Y218425D01*
X132920Y218425D01*
X124453Y214645D02*
X130098Y214645D01*
X137153Y210866D02*
X142798Y210866D01*
X145620Y212378D01*
X145620Y216913D01*
X142798Y218425D01*
X137153Y218425D01*
X138564Y218425D02*
X138564Y210866D01*
X151264Y216913D02*
X154087Y218425D01*
X154087Y210866D01*
X149853Y210866D02*
X158320Y210866D01*
X107264Y309923D02*
X103881Y307510D01*
X100722Y304812D01*
X97810Y301848D01*
X95167Y298643D01*
X92814Y295219D01*
X90768Y291602D01*
X89045Y287822D01*
X87658Y283905D01*
X86618Y279883D01*
X85932Y275785D01*
X85606Y271643D01*
X85642Y267489D01*
X86041Y263353D01*
X86798Y259268D01*
X87908Y255264D01*
X89363Y251373D01*
X91152Y247623D01*
X93260Y244043D01*
X95673Y240660D01*
X98371Y237501D01*
X101335Y234589D01*
X104541Y231946D01*
X107965Y229593D01*
X111581Y227547D01*
X115361Y225824D01*
X119278Y224437D01*
X123300Y223397D01*
X127398Y222711D01*
X131540Y222385D01*
X135695Y222421D01*
X139830Y222820D01*
X143915Y223577D01*
X147919Y224687D01*
X151811Y226142D01*
X155561Y227931D01*
X159141Y230039D01*
X162523Y232452D01*
X165682Y235150D01*
X168594Y238114D01*
X171237Y241320D01*
X173590Y244744D01*
X175636Y248360D01*
X177359Y252140D01*
X178746Y256057D01*
X179786Y260079D01*
X180472Y264177D01*
X180798Y268319D01*
X180762Y272474D01*
X180364Y276609D01*
X179606Y280694D01*
X178496Y284698D01*
X177041Y288590D01*
X175252Y292340D01*
X173144Y295920D01*
X170731Y299302D01*
X168033Y302461D01*
X165069Y305373D01*
X161864Y308016D01*
X159141Y309923D01*
X133202Y229764D02*
X136707Y229917D01*
X140186Y230375D01*
X143611Y231135D01*
X146957Y232190D01*
X150198Y233532D01*
X153310Y235152D01*
X156269Y237038D01*
X159053Y239173D01*
X161640Y241544D01*
X164010Y244130D01*
X166146Y246914D01*
X168031Y249873D01*
X169651Y252985D01*
X170993Y256226D01*
X172048Y259572D01*
X172808Y262998D01*
X173266Y266476D01*
X173419Y269981D01*
X173266Y273486D01*
X172808Y276965D01*
X172048Y280390D01*
X170993Y283736D01*
X169651Y286977D01*
X168031Y290089D01*
X166146Y293048D01*
X164010Y295832D01*
X161640Y298419D01*
X159053Y300789D01*
X156269Y302925D01*
X153310Y304810D01*
X150198Y306430D01*
X146957Y307772D01*
X143611Y308827D01*
X140186Y309587D01*
X136707Y310045D01*
X133202Y310198D01*
X129697Y310045D01*
X126219Y309587D01*
X122793Y308827D01*
X119447Y307772D01*
X116206Y306430D01*
X113094Y304810D01*
X110135Y302925D01*
X107351Y300789D01*
X104765Y298419D01*
X102394Y295832D01*
X100259Y293048D01*
X98373Y290089D01*
X96753Y286977D01*
X95411Y283736D01*
X94356Y280390D01*
X93596Y276965D01*
X93138Y273486D01*
X92985Y269981D01*
X93138Y266476D01*
X93596Y262998D01*
X94356Y259572D01*
X95411Y256226D01*
X96753Y252985D01*
X98373Y249873D01*
X100259Y246914D01*
X102394Y244130D01*
X104765Y241544D01*
X107351Y239173D01*
X110135Y237038D01*
X113094Y235152D01*
X116206Y233532D01*
X119447Y232190D01*
X122793Y231135D01*
X126219Y230375D01*
X129697Y229917D01*
X133202Y229764D01*
X114152Y259398D02*
X120502Y259398D01*
X120502Y255164D02*
X120687Y255173D01*
X120870Y255197D01*
X121050Y255237D01*
X121226Y255292D01*
X121397Y255363D01*
X121560Y255448D01*
X121716Y255547D01*
X121863Y255660D01*
X121999Y255784D01*
X122124Y255921D01*
X122236Y256067D01*
X122335Y256223D01*
X122420Y256387D01*
X122491Y256557D01*
X122547Y256733D01*
X122587Y256914D01*
X122611Y257097D01*
X122619Y257281D01*
X122611Y257466D01*
X122587Y257649D01*
X122547Y257829D01*
X122491Y258005D01*
X122420Y258176D01*
X122335Y258339D01*
X122236Y258495D01*
X122124Y258642D01*
X121999Y258778D01*
X121863Y258903D01*
X121716Y259015D01*
X121560Y259114D01*
X121397Y259199D01*
X121226Y259270D01*
X121050Y259326D01*
X120870Y259366D01*
X120687Y259390D01*
X120502Y259398D01*
X118385Y259398D02*
X118385Y255164D01*
X158602Y310198D02*
X107802Y310198D01*
X116269Y284798D02*
X116085Y284790D01*
X115902Y284766D01*
X115721Y284726D01*
X115545Y284670D01*
X115375Y284599D01*
X115211Y284514D01*
X115055Y284415D01*
X114909Y284303D01*
X114772Y284178D01*
X114648Y284042D01*
X114535Y283895D01*
X114436Y283739D01*
X114351Y283576D01*
X114280Y283405D01*
X114225Y283229D01*
X114185Y283049D01*
X114161Y282866D01*
X114152Y282681D01*
X114161Y282497D01*
X114185Y282314D01*
X114225Y282133D01*
X114280Y281957D01*
X114351Y281787D01*
X114436Y281623D01*
X114535Y281467D01*
X114648Y281321D01*
X114772Y281184D01*
X114909Y281060D01*
X115055Y280947D01*
X115211Y280848D01*
X115375Y280763D01*
X115545Y280692D01*
X115721Y280637D01*
X115902Y280597D01*
X116085Y280573D01*
X116269Y280564D01*
X116269Y280564D01*
X120502Y280564D02*
X120687Y280573D01*
X120870Y280597D01*
X121050Y280637D01*
X121226Y280692D01*
X121397Y280763D01*
X121560Y280848D01*
X121716Y280947D01*
X121863Y281060D01*
X121999Y281184D01*
X122124Y281321D01*
X122236Y281467D01*
X122335Y281623D01*
X122420Y281787D01*
X122491Y281957D01*
X122547Y282133D01*
X122587Y282314D01*
X122611Y282497D01*
X122619Y282681D01*
X122611Y282866D01*
X122587Y283049D01*
X122547Y283229D01*
X122491Y283405D01*
X122420Y283576D01*
X122335Y283739D01*
X122236Y283895D01*
X122124Y284042D01*
X121999Y284178D01*
X121863Y284303D01*
X121716Y284415D01*
X121560Y284514D01*
X121397Y284599D01*
X121226Y284670D01*
X121050Y284726D01*
X120870Y284766D01*
X120687Y284790D01*
X120502Y284798D01*
X116269Y284798D02*
X120502Y284798D01*
X114152Y255164D02*
X120502Y255164D01*
X473780Y176080D02*
X450780Y176080D01*
X450780Y126080D02*
X473780Y126080D01*
X450780Y176080D02*
X450780Y126080D01*
X473780Y126080D02*
X473780Y176080D01*
G54D12*
X109020Y456720D02*
X134520Y456720D01*
X134520Y536720D01*
X109020Y536720D01*
X109020Y456720D01*
X121920Y440720D02*
X121920Y456720D01*
X121920Y536720D02*
X121920Y551720D01*
X7420Y220574D02*
X32920Y220574D01*
X32920Y300574D01*
X7420Y300574D01*
X7420Y220574D01*
X20320Y204574D02*
X20320Y220574D01*
X20320Y300574D02*
X20320Y315574D01*
X17848Y55682D02*
X43348Y55682D01*
X43348Y135682D01*
X17848Y135682D01*
X17848Y55682D01*
X30748Y39682D02*
X30748Y55682D01*
X30748Y135682D02*
X30748Y150682D01*
X73860Y137640D02*
X48360Y137640D01*
X48360Y57640D01*
X73860Y57640D01*
X73860Y137640D01*
X60960Y153640D02*
X60960Y137640D01*
X60960Y57640D02*
X60960Y42640D01*
X243453Y678826D02*
X323453Y678826D01*
X323453Y653326D01*
X243453Y653326D01*
X243453Y678826D01*
X227453Y665926D02*
X243453Y665926D01*
X323453Y665926D02*
X338453Y665926D01*
X243453Y642326D02*
X323453Y642326D01*
X323453Y616826D01*
X243453Y616826D01*
X243453Y642326D01*
X227453Y629426D02*
X243453Y629426D01*
X323453Y629426D02*
X338453Y629426D01*
X510640Y118600D02*
X536140Y118600D01*
X536140Y198600D01*
X510640Y198600D01*
X510640Y118600D01*
X523540Y102600D02*
X523540Y118600D01*
X523540Y198600D02*
X523540Y213600D01*
X480160Y118600D02*
X505660Y118600D01*
X505660Y198600D01*
X480160Y198600D01*
X480160Y118600D01*
X493060Y102600D02*
X493060Y118600D01*
X493060Y198600D02*
X493060Y213600D01*
G36*
X450720Y167089D02*
X450720Y175089D01*
X473132Y175089D01*
X473132Y167089D01*
X450720Y167089D01*
G37*
G54D13*
X70307Y318091D02*
X68320Y320086D01*
X66333Y320086D01*
X64346Y318091D01*
X64346Y312104D01*
X66333Y310108D01*
X68320Y310108D01*
X70307Y312104D01*
X70307Y318091D01*
X66333Y318091D02*
X64346Y320086D01*
X60372Y312104D02*
X58386Y310108D01*
X58386Y320086D01*
X61366Y320086D02*
X55405Y320086D01*
X101372Y141427D02*
X93389Y141427D01*
X91394Y139440D01*
X91394Y137453D01*
X93389Y135466D01*
X101372Y135466D01*
X99376Y131492D02*
X101372Y129506D01*
X91394Y129506D01*
X91394Y132486D02*
X91394Y126525D01*
G54D14*
X82184Y306193D02*
X86100Y293110D01*
X44984Y306143D02*
X40900Y292960D01*
X105287Y153304D02*
X118370Y157220D01*
X105337Y116104D02*
X118520Y112020D01*
X430790Y69560D02*
X488690Y69560D01*
X488690Y1560D01*
X430790Y1560D01*
X430790Y69560D01*
G54D15*
G36*
X88823Y183702D02*
X88823Y183702D01*
X95034Y183702D01*
X95034Y185841D01*
X88823Y183702D01*
D02*
G37*
X95034Y183702D01*
X95034Y185841D01*
X88823Y183702D01*
G36*
X88823Y183702D01*
X95034Y185841D01*
X88823Y185841D01*
X88823Y183702D01*
D02*
G37*
X95034Y185841D01*
X88823Y185841D01*
X88823Y183702D01*
G36*
X88823Y183702D01*
X88823Y192110D01*
X88823Y183702D01*
D02*
G37*
X88823Y192110D01*
X88823Y183702D01*
G36*
X88823Y183702D01*
X88823Y192110D01*
X86670Y192110D01*
X88823Y183702D01*
D02*
G37*
X88823Y192110D01*
X86670Y192110D01*
X88823Y183702D01*
G36*
X88823Y183702D01*
X86670Y192110D01*
X86670Y185841D01*
X88823Y183702D01*
D02*
G37*
X86670Y192110D01*
X86670Y185841D01*
X88823Y183702D01*
G36*
X88823Y183702D01*
X86670Y185841D01*
X80459Y185841D01*
X88823Y183702D01*
D02*
G37*
X86670Y185841D01*
X80459Y185841D01*
X88823Y183702D01*
G36*
X88823Y183702D01*
X80459Y185841D01*
X80459Y183702D01*
X88823Y183702D01*
D02*
G37*
X80459Y185841D01*
X80459Y183702D01*
X88823Y183702D01*
G36*
X88823Y183702D01*
X86670Y183702D01*
X88823Y183702D01*
D02*
G37*
X86670Y183702D01*
X88823Y183702D01*
G36*
X88823Y183702D01*
X86670Y183702D01*
X86670Y177433D01*
X88823Y183702D01*
D02*
G37*
X86670Y183702D01*
X86670Y177433D01*
X88823Y183702D01*
G36*
X88823Y183702D01*
X86670Y177433D01*
X88823Y177433D01*
X88823Y183702D01*
D02*
G37*
X86670Y177433D01*
X88823Y177433D01*
X88823Y183702D01*
G36*
X136571Y81138D02*
X136571Y81138D01*
X130361Y81138D01*
X130361Y78999D01*
X136571Y81138D01*
D02*
G37*
X130361Y81138D01*
X130361Y78999D01*
X136571Y81138D01*
G36*
X136571Y81138D01*
X130361Y78999D01*
X136571Y78999D01*
X136571Y81138D01*
D02*
G37*
X130361Y78999D01*
X136571Y78999D01*
X136571Y81138D01*
G36*
X136571Y81138D01*
X136571Y72730D01*
X136571Y81138D01*
D02*
G37*
X136571Y72730D01*
X136571Y81138D01*
G36*
X136571Y81138D01*
X136571Y72730D01*
X138725Y72730D01*
X136571Y81138D01*
D02*
G37*
X136571Y72730D01*
X138725Y72730D01*
X136571Y81138D01*
G36*
X136571Y81138D01*
X138725Y72730D01*
X138725Y78999D01*
X136571Y81138D01*
D02*
G37*
X138725Y72730D01*
X138725Y78999D01*
X136571Y81138D01*
G36*
X136571Y81138D01*
X138725Y78999D01*
X144936Y78999D01*
X136571Y81138D01*
D02*
G37*
X138725Y78999D01*
X144936Y78999D01*
X136571Y81138D01*
G36*
X136571Y81138D01*
X144936Y78999D01*
X144936Y81138D01*
X136571Y81138D01*
D02*
G37*
X144936Y78999D01*
X144936Y81138D01*
X136571Y81138D01*
G36*
X136571Y81138D01*
X138725Y81138D01*
X136571Y81138D01*
D02*
G37*
X138725Y81138D01*
X136571Y81138D01*
G36*
X136571Y81138D01*
X138725Y81138D01*
X138725Y87407D01*
X136571Y81138D01*
D02*
G37*
X138725Y81138D01*
X138725Y87407D01*
X136571Y81138D01*
G36*
X136571Y81138D01*
X138725Y87407D01*
X136571Y87407D01*
X136571Y81138D01*
D02*
G37*
X138725Y87407D01*
X136571Y87407D01*
X136571Y81138D01*
G54D16*
X451776Y-13940D02*
X453767Y-15940D01*
X455758Y-15940D01*
X457749Y-13940D01*
X457749Y-5940D01*
X460736Y-13940D02*
X462727Y-15940D01*
X464718Y-15940D01*
X466709Y-13940D01*
X466709Y-9940D01*
X466709Y-7940D01*
X464718Y-5940D01*
X462727Y-5940D01*
X460736Y-7940D01*
X460736Y-9940D01*
X462727Y-11940D01*
X464718Y-11940D01*
X466709Y-9940D01*
G54D17*
X436969Y157715D02*
X436969Y153448D01*
X439111Y151315D01*
X445540Y151315D01*
X447683Y153448D01*
X447683Y157715D01*
X447683Y156648D02*
X436969Y156648D01*
X445540Y148115D02*
X447683Y145982D01*
X447683Y143848D01*
X445540Y141715D01*
X444469Y141715D01*
X436969Y148115D01*
X436969Y141715D01*
X438040Y141715D01*
G54D18*
X462280Y177080D02*
X462280Y183080D01*
X462280Y119080D02*
X462280Y125580D01*
G54D19*
X465035Y187074D02*
X465746Y187789D01*
X466457Y187789D01*
X467168Y187074D01*
X467168Y184931D01*
X466457Y184217D01*
X465746Y184217D01*
X465035Y184931D01*
X464366Y119424D02*
X466509Y119424D01*
X467938Y118713D01*
X467938Y118001D01*
X466509Y117290D01*
X464366Y117290D01*
X465438Y119424D02*
X465438Y117290D01*

M02*
