G04 Generated by Ultiboard 14.0 *
%FSLAX34Y34*%
%MOMM*%

%ADD10C,0.0001*%
%ADD11C,0.2032*%
%ADD12C,0.1552*%
%ADD13C,0.1129*%


G04 ColorRGB FF14FF for the following layer *
%LNSilkscreen Bottom*%
%LPD*%
G54D10*
G54D11*
X237631Y601164D02*
X240453Y602675D01*
X243276Y602675D01*
X246098Y601164D01*
X246098Y595116D01*
X251742Y596628D02*
X254564Y595116D01*
X254564Y602675D01*
X250331Y602675D02*
X258798Y602675D01*
X337820Y541020D02*
X263737Y541020D01*
X337820Y591820D02*
X261620Y591820D01*
X236220Y591820D02*
X236220Y541020D01*
X257387Y585470D02*
X259503Y583353D01*
X259503Y591820D01*
X255270Y591820D02*
X236220Y591820D01*
X257386Y543137D02*
X257394Y542953D01*
X257418Y542769D01*
X257458Y542589D01*
X257514Y542413D01*
X257585Y542242D01*
X257670Y542079D01*
X257769Y541923D01*
X257882Y541776D01*
X258006Y541640D01*
X258142Y541516D01*
X258289Y541403D01*
X258445Y541304D01*
X258608Y541219D01*
X258779Y541148D01*
X258955Y541092D01*
X259135Y541052D01*
X259319Y541028D01*
X259503Y541020D01*
X259687Y541028D01*
X259871Y541052D01*
X260051Y541092D01*
X260227Y541148D01*
X260398Y541219D01*
X260561Y541304D01*
X260717Y541403D01*
X260864Y541516D01*
X261000Y541640D01*
X261124Y541776D01*
X261237Y541923D01*
X261336Y542079D01*
X261421Y542242D01*
X261492Y542413D01*
X261548Y542589D01*
X261588Y542769D01*
X261612Y542953D01*
X261620Y543137D01*
X261612Y543321D01*
X261588Y543505D01*
X261548Y543685D01*
X261492Y543861D01*
X261421Y544032D01*
X261336Y544195D01*
X261237Y544351D01*
X261124Y544498D01*
X261000Y544634D01*
X260864Y544758D01*
X260717Y544871D01*
X260561Y544970D01*
X260398Y545055D01*
X260227Y545126D01*
X260051Y545182D01*
X259871Y545222D01*
X259687Y545246D01*
X259503Y545254D01*
X257386Y547370D02*
X257394Y547186D01*
X257418Y547002D01*
X257458Y546822D01*
X257514Y546646D01*
X257585Y546475D01*
X257670Y546312D01*
X257769Y546156D01*
X257882Y546009D01*
X258006Y545873D01*
X258142Y545749D01*
X258289Y545636D01*
X258445Y545537D01*
X258608Y545452D01*
X258779Y545381D01*
X258955Y545325D01*
X259135Y545285D01*
X259319Y545261D01*
X259503Y545253D01*
X261620Y549487D02*
X257387Y549487D01*
X257387Y547370D01*
X236220Y541020D02*
X255270Y541020D01*
X337820Y541020D02*
X337820Y591820D01*
X389436Y592215D02*
X387925Y595037D01*
X387925Y597860D01*
X389436Y600682D01*
X395484Y600682D01*
X387925Y609148D02*
X391704Y609148D01*
X393972Y613382D01*
X395484Y613382D01*
X395484Y604915D01*
X393972Y604915D01*
X398780Y641604D02*
X398780Y590804D01*
X424180Y609854D02*
X424180Y590804D01*
X398780Y590804D01*
X424180Y641604D02*
X424180Y618321D01*
X424180Y614087D02*
X415713Y614087D01*
X422063Y611971D02*
X424180Y614087D01*
X424180Y641604D02*
X398780Y641604D01*
X550545Y208915D02*
X550545Y107315D01*
X597535Y107315D02*
X597535Y208915D01*
X584835Y208915D02*
X584835Y107315D01*
X583565Y107315D02*
X550545Y107315D01*
X597535Y107315D02*
X583565Y107315D01*
X583565Y208915D02*
X550545Y208915D01*
X597535Y208915D02*
X583565Y208915D01*
X589355Y242553D02*
X586533Y241041D01*
X583710Y241041D01*
X580888Y242553D01*
X580888Y248601D01*
X575244Y247845D02*
X573833Y248601D01*
X571010Y248601D01*
X568188Y247089D01*
X568188Y245577D01*
X569599Y244821D01*
X568188Y244065D01*
X568188Y242553D01*
X571010Y241041D01*
X573833Y241041D01*
X575244Y241797D01*
X573833Y244821D02*
X569599Y244821D01*
X490220Y252984D02*
X591820Y252984D01*
X490220Y278384D02*
X566420Y278384D01*
X591820Y278384D02*
X591820Y252984D01*
X572770Y278384D02*
X591820Y278384D01*
X568537Y278384D02*
X568537Y269917D01*
X570653Y276267D02*
X568537Y278384D01*
X490220Y278384D02*
X490220Y252984D01*
X153529Y375164D02*
X153529Y369116D01*
X150707Y367605D01*
X147884Y367605D01*
X145062Y369116D01*
X145062Y375164D01*
X140829Y373652D02*
X138007Y375164D01*
X135184Y375164D01*
X132362Y373652D01*
X132362Y372896D01*
X140829Y367605D01*
X132362Y367605D01*
X132362Y368360D01*
X104140Y378460D02*
X154940Y378460D01*
X135890Y403860D02*
X154940Y403860D01*
X154940Y378460D01*
X104140Y403860D02*
X127423Y403860D01*
X131657Y403860D02*
X131657Y395393D01*
X133773Y401743D02*
X131657Y403860D01*
X104140Y403860D02*
X104140Y378460D01*
G54D12*
X537754Y151488D02*
X535759Y153475D01*
X535759Y155462D01*
X537754Y157449D01*
X543741Y157449D01*
X545737Y155462D01*
X545737Y153475D01*
X543741Y151488D01*
X537754Y151488D01*
X537754Y155462D02*
X535759Y157449D01*
X543741Y160429D02*
X545737Y162416D01*
X545737Y164403D01*
X543741Y166390D01*
X542744Y166390D01*
X535759Y160429D01*
X535759Y166390D01*
X536756Y166390D01*
G54D13*
X558785Y143786D02*
X560236Y145231D01*
X560236Y146676D01*
X558785Y148120D01*
X558059Y148120D01*
X552979Y143786D01*
X552979Y148120D01*
X553705Y148120D01*
X558714Y119859D02*
X560165Y121304D01*
X552908Y121304D01*
X552908Y119137D02*
X552908Y123472D01*
X559352Y170468D02*
X560078Y171191D01*
X560078Y172636D01*
X558626Y174081D01*
X557175Y174081D01*
X556449Y173358D01*
X555724Y174081D01*
X554272Y174081D01*
X552821Y172636D01*
X552821Y171191D01*
X553546Y170468D01*
X556449Y171191D02*
X556449Y173358D01*

M02*
