G04 Generated by Ultiboard 14.0 *
%FSLAX34Y34*%
%MOMM*%

%ADD10C,0.0001*%
%ADD11C,0.1000*%
%ADD12C,0.0100*%
%ADD13C,0.0010*%


G04 ColorRGB 000000 for the following layer *
%LNDrill Symbols-Copper Top-Copper Bottom*%
%LPD*%
G54D11*
X185420Y425784D02*
X185420Y435784D01*
X180420Y430784D02*
X190420Y430784D01*
X185420Y400384D02*
X185420Y410384D01*
X180420Y405384D02*
X190420Y405384D01*
X180420Y379984D02*
X190420Y379984D01*
X185420Y374984D02*
X185420Y384984D01*
X180420Y354584D02*
X190420Y354584D01*
X185420Y349584D02*
X185420Y359584D01*
X180420Y329184D02*
X190420Y329184D01*
X185420Y324184D02*
X185420Y334184D01*
X185420Y298784D02*
X185420Y308784D01*
X180420Y303784D02*
X190420Y303784D01*
X185420Y273384D02*
X185420Y283384D01*
X180420Y278384D02*
X190420Y278384D01*
X185420Y247984D02*
X185420Y257984D01*
X180420Y252984D02*
X190420Y252984D01*
X180420Y227584D02*
X190420Y227584D01*
X185420Y222584D02*
X185420Y232584D01*
X180420Y202184D02*
X190420Y202184D01*
X185420Y197184D02*
X185420Y207184D01*
X180420Y176784D02*
X190420Y176784D01*
X185420Y171784D02*
X185420Y181784D01*
X185420Y146384D02*
X185420Y156384D01*
X180420Y151384D02*
X190420Y151384D01*
X185420Y120984D02*
X185420Y130984D01*
X180420Y125984D02*
X190420Y125984D01*
X180420Y100584D02*
X190420Y100584D01*
X185420Y95584D02*
X185420Y105584D01*
X180420Y75184D02*
X190420Y75184D01*
X185420Y70184D02*
X185420Y80184D01*
X409020Y430784D02*
X419020Y430784D01*
X414020Y425784D02*
X414020Y435784D01*
X414020Y400384D02*
X414020Y410384D01*
X409020Y405384D02*
X419020Y405384D01*
X414020Y374984D02*
X414020Y384984D01*
X409020Y379984D02*
X419020Y379984D01*
X409020Y354584D02*
X419020Y354584D01*
X414020Y349584D02*
X414020Y359584D01*
X409020Y329184D02*
X419020Y329184D01*
X414020Y324184D02*
X414020Y334184D01*
X409020Y303784D02*
X419020Y303784D01*
X414020Y298784D02*
X414020Y308784D01*
X414020Y273384D02*
X414020Y283384D01*
X409020Y278384D02*
X419020Y278384D01*
X414020Y247984D02*
X414020Y257984D01*
X409020Y252984D02*
X419020Y252984D01*
X409020Y227584D02*
X419020Y227584D01*
X414020Y222584D02*
X414020Y232584D01*
X409020Y202184D02*
X419020Y202184D01*
X414020Y197184D02*
X414020Y207184D01*
X409020Y176784D02*
X419020Y176784D01*
X414020Y171784D02*
X414020Y181784D01*
X414020Y146384D02*
X414020Y156384D01*
X409020Y151384D02*
X419020Y151384D01*
X414020Y120984D02*
X414020Y130984D01*
X409020Y125984D02*
X419020Y125984D01*
X409020Y100584D02*
X419020Y100584D01*
X414020Y95584D02*
X414020Y105584D01*
X409020Y75184D02*
X419020Y75184D01*
X414020Y70184D02*
X414020Y80184D01*
X148590Y610870D02*
X158750Y610870D01*
X158750Y621030D01*
X148590Y621030D01*
X148590Y610870D01*
X148590Y636270D02*
X158750Y636270D01*
X158750Y646430D01*
X148590Y646430D01*
X148590Y636270D01*
X135890Y623570D02*
X146050Y623570D01*
X146050Y633730D01*
X135890Y633730D01*
X135890Y623570D01*
X563668Y158115D02*
G75*
D01*
G02X563668Y158115I5927J0*
G01*
X567290Y156422D02*
X567290Y158962D01*
X568607Y160655D01*
X569924Y160655D01*
X571241Y158962D01*
X571241Y156422D01*
X567290Y157692D02*
X571241Y157692D01*
X563668Y132715D02*
G75*
D01*
G02X563668Y132715I5927J0*
G01*
X567290Y131022D02*
X567290Y133562D01*
X568607Y135255D01*
X569924Y135255D01*
X571241Y133562D01*
X571241Y131022D01*
X567290Y132292D02*
X571241Y132292D01*
X563668Y183515D02*
G75*
D01*
G02X563668Y183515I5927J0*
G01*
X567290Y181822D02*
X567290Y184362D01*
X568607Y186055D01*
X569924Y186055D01*
X571241Y184362D01*
X571241Y181822D01*
X567290Y183092D02*
X571241Y183092D01*
X466535Y29655D02*
X478345Y29655D01*
X478345Y41465D01*
X466535Y41465D01*
X466535Y29655D01*
X470144Y33873D02*
X470144Y36404D01*
X471456Y38091D01*
X472768Y38091D01*
X474080Y36404D01*
X474080Y33873D01*
X470144Y35138D02*
X474080Y35138D01*
X441135Y29655D02*
X452945Y29655D01*
X452945Y41465D01*
X441135Y41465D01*
X441135Y29655D01*
X444744Y33873D02*
X444744Y36404D01*
X446056Y38091D01*
X447368Y38091D01*
X448680Y36404D01*
X448680Y33873D01*
X444744Y35138D02*
X448680Y35138D01*
X900735Y275347D02*
X900735Y277887D01*
X902052Y279580D01*
X903369Y279580D01*
X904686Y277887D01*
X904686Y275347D01*
X900735Y276617D02*
X904686Y276617D01*
X897113Y277040D02*
G75*
D01*
G02X897113Y277040I5927J0*
G01*
X1010707Y285611D02*
X1017373Y289897D01*
X1017373Y268469D01*
X1007373Y268469D02*
X1027373Y268469D01*
X1047373Y268469D02*
X1047373Y270611D01*
X1070707Y285611D02*
X1077373Y289897D01*
X1077373Y268469D01*
X1067373Y268469D02*
X1087373Y268469D01*
X1110707Y268469D02*
X1104040Y268469D01*
X1097373Y272754D01*
X1097373Y277040D01*
X1100707Y279183D01*
X1097373Y281326D01*
X1097373Y285611D01*
X1104040Y289897D01*
X1110707Y289897D01*
X1117373Y285611D01*
X1117373Y281326D01*
X1114040Y279183D01*
X1117373Y277040D01*
X1117373Y272754D01*
X1110707Y268469D01*
X1100707Y279183D02*
X1114040Y279183D01*
X1147373Y289897D02*
X1127373Y289897D01*
X1127373Y281326D01*
X1140707Y281326D01*
X1147373Y277040D01*
X1147373Y272754D01*
X1140707Y268469D01*
X1127373Y268469D01*
X1177373Y277040D02*
X1157373Y277040D01*
X1174040Y289897D01*
X1174040Y268469D01*
X1170707Y268469D02*
X1177373Y268469D01*
X1306707Y287754D02*
X1310040Y289897D01*
X1316707Y289897D01*
X1323373Y285611D01*
X1323373Y281326D01*
X1320040Y279183D01*
X1323373Y277040D01*
X1323373Y272754D01*
X1316707Y268469D01*
X1310040Y268469D01*
X1306707Y270611D01*
X1310040Y279183D02*
X1320040Y279183D01*
X1494373Y268469D02*
X1494373Y289897D01*
X1507707Y289897D01*
X1514373Y285611D01*
X1514373Y283469D01*
X1507707Y279183D01*
X1494373Y279183D01*
X1534373Y268469D02*
X1534373Y289897D01*
X1524373Y289897D02*
X1544373Y289897D01*
X1554373Y268469D02*
X1554373Y289897D01*
X1574373Y268469D02*
X1574373Y289897D01*
X1554373Y279183D02*
X1574373Y279183D01*
X1670373Y285611D02*
X1677040Y289897D01*
X1683707Y289897D01*
X1690373Y285611D01*
X1690373Y272754D01*
X1683707Y268469D01*
X1677040Y268469D01*
X1670373Y272754D01*
X1670373Y285611D01*
X1690373Y285611D02*
X1670373Y272754D01*
X1747040Y268469D02*
X1743707Y268469D01*
X1737040Y272754D01*
X1737040Y285611D01*
X1743707Y289897D01*
X1747040Y289897D01*
X1760373Y268469D02*
X1760373Y289897D01*
X1773707Y289897D01*
X1780373Y285611D01*
X1780373Y283469D01*
X1773707Y279183D01*
X1760373Y279183D01*
X1763707Y279183D02*
X1780373Y268469D01*
X1790373Y272754D02*
X1797040Y268469D01*
X1803707Y268469D01*
X1810373Y272754D01*
X1810373Y285611D01*
X1803707Y289897D01*
X1797040Y289897D01*
X1790373Y285611D01*
X1790373Y272754D01*
X1820373Y289897D02*
X1820373Y272754D01*
X1827040Y268469D01*
X1833707Y268469D01*
X1840373Y272754D01*
X1840373Y289897D01*
X1850373Y268469D02*
X1850373Y289897D01*
X1870373Y268469D01*
X1870373Y289897D01*
X1880373Y268469D02*
X1893707Y268469D01*
X1900373Y272754D01*
X1900373Y285611D01*
X1893707Y289897D01*
X1880373Y289897D01*
X1883707Y289897D02*
X1883707Y268469D01*
X1913707Y289897D02*
X1917040Y289897D01*
X1923707Y285611D01*
X1923707Y272754D01*
X1917040Y268469D01*
X1913707Y268469D01*
X897135Y312135D02*
X908945Y312135D01*
X908945Y323945D01*
X897135Y323945D01*
X897135Y312135D01*
X900744Y316353D02*
X900744Y318884D01*
X902056Y320571D01*
X903368Y320571D01*
X904680Y318884D01*
X904680Y316353D01*
X900744Y317618D02*
X904680Y317618D01*
X1010707Y326611D02*
X1017373Y330897D01*
X1017373Y309469D01*
X1007373Y309469D02*
X1027373Y309469D01*
X1047373Y309469D02*
X1047373Y311611D01*
X1070707Y326611D02*
X1077373Y330897D01*
X1077373Y309469D01*
X1067373Y309469D02*
X1087373Y309469D01*
X1110707Y309469D02*
X1104040Y309469D01*
X1097373Y313754D01*
X1097373Y318040D01*
X1100707Y320183D01*
X1097373Y322326D01*
X1097373Y326611D01*
X1104040Y330897D01*
X1110707Y330897D01*
X1117373Y326611D01*
X1117373Y322326D01*
X1114040Y320183D01*
X1117373Y318040D01*
X1117373Y313754D01*
X1110707Y309469D01*
X1100707Y320183D02*
X1114040Y320183D01*
X1130707Y326611D02*
X1137373Y330897D01*
X1137373Y309469D01*
X1127373Y309469D02*
X1147373Y309469D01*
X1157373Y326611D02*
X1164040Y330897D01*
X1170707Y330897D01*
X1177373Y326611D01*
X1177373Y313754D01*
X1170707Y309469D01*
X1164040Y309469D01*
X1157373Y313754D01*
X1157373Y326611D01*
X1177373Y326611D02*
X1157373Y313754D01*
X1303373Y326611D02*
X1310040Y330897D01*
X1316707Y330897D01*
X1323373Y326611D01*
X1323373Y324469D01*
X1303373Y309469D01*
X1323373Y309469D01*
X1323373Y311611D01*
X1494373Y309469D02*
X1494373Y330897D01*
X1507707Y330897D01*
X1514373Y326611D01*
X1514373Y324469D01*
X1507707Y320183D01*
X1494373Y320183D01*
X1534373Y309469D02*
X1534373Y330897D01*
X1524373Y330897D02*
X1544373Y330897D01*
X1554373Y309469D02*
X1554373Y330897D01*
X1574373Y309469D02*
X1574373Y330897D01*
X1554373Y320183D02*
X1574373Y320183D01*
X1670373Y326611D02*
X1677040Y330897D01*
X1683707Y330897D01*
X1690373Y326611D01*
X1690373Y313754D01*
X1683707Y309469D01*
X1677040Y309469D01*
X1670373Y313754D01*
X1670373Y326611D01*
X1690373Y326611D02*
X1670373Y313754D01*
X1747040Y309469D02*
X1743707Y309469D01*
X1737040Y313754D01*
X1737040Y326611D01*
X1743707Y330897D01*
X1747040Y330897D01*
X1760373Y309469D02*
X1760373Y330897D01*
X1773707Y330897D01*
X1780373Y326611D01*
X1780373Y324469D01*
X1773707Y320183D01*
X1760373Y320183D01*
X1763707Y320183D02*
X1780373Y309469D01*
X1790373Y313754D02*
X1797040Y309469D01*
X1803707Y309469D01*
X1810373Y313754D01*
X1810373Y326611D01*
X1803707Y330897D01*
X1797040Y330897D01*
X1790373Y326611D01*
X1790373Y313754D01*
X1820373Y330897D02*
X1820373Y313754D01*
X1827040Y309469D01*
X1833707Y309469D01*
X1840373Y313754D01*
X1840373Y330897D01*
X1850373Y309469D02*
X1850373Y330897D01*
X1870373Y309469D01*
X1870373Y330897D01*
X1880373Y309469D02*
X1893707Y309469D01*
X1900373Y313754D01*
X1900373Y326611D01*
X1893707Y330897D01*
X1880373Y330897D01*
X1883707Y330897D02*
X1883707Y309469D01*
X1913707Y330897D02*
X1917040Y330897D01*
X1923707Y326611D01*
X1923707Y313754D01*
X1917040Y309469D01*
X1913707Y309469D01*
X897960Y353960D02*
X908120Y353960D01*
X908120Y364120D01*
X897960Y364120D01*
X897960Y353960D01*
X1010707Y367611D02*
X1017373Y371897D01*
X1017373Y350469D01*
X1007373Y350469D02*
X1027373Y350469D01*
X1047373Y350469D02*
X1047373Y352611D01*
X1067373Y367611D02*
X1074040Y371897D01*
X1080707Y371897D01*
X1087373Y367611D01*
X1087373Y354754D01*
X1080707Y350469D01*
X1074040Y350469D01*
X1067373Y354754D01*
X1067373Y367611D01*
X1087373Y367611D02*
X1067373Y354754D01*
X1100707Y367611D02*
X1107373Y371897D01*
X1107373Y350469D01*
X1097373Y350469D02*
X1117373Y350469D01*
X1144040Y371897D02*
X1134040Y371897D01*
X1127373Y367611D01*
X1127373Y359040D01*
X1127373Y354754D01*
X1134040Y350469D01*
X1140707Y350469D01*
X1147373Y354754D01*
X1147373Y359040D01*
X1140707Y363326D01*
X1134040Y363326D01*
X1127373Y359040D01*
X1157373Y367611D02*
X1164040Y371897D01*
X1170707Y371897D01*
X1177373Y367611D01*
X1177373Y354754D01*
X1170707Y350469D01*
X1164040Y350469D01*
X1157373Y354754D01*
X1157373Y367611D01*
X1177373Y367611D02*
X1157373Y354754D01*
X1306707Y369754D02*
X1310040Y371897D01*
X1316707Y371897D01*
X1323373Y367611D01*
X1323373Y363326D01*
X1320040Y361183D01*
X1323373Y359040D01*
X1323373Y354754D01*
X1316707Y350469D01*
X1310040Y350469D01*
X1306707Y352611D01*
X1310040Y361183D02*
X1320040Y361183D01*
X1494373Y350469D02*
X1494373Y371897D01*
X1507707Y371897D01*
X1514373Y367611D01*
X1514373Y365469D01*
X1507707Y361183D01*
X1494373Y361183D01*
X1534373Y350469D02*
X1534373Y371897D01*
X1524373Y371897D02*
X1544373Y371897D01*
X1554373Y350469D02*
X1554373Y371897D01*
X1574373Y350469D02*
X1574373Y371897D01*
X1554373Y361183D02*
X1574373Y361183D01*
X1670373Y367611D02*
X1677040Y371897D01*
X1683707Y371897D01*
X1690373Y367611D01*
X1690373Y354754D01*
X1683707Y350469D01*
X1677040Y350469D01*
X1670373Y354754D01*
X1670373Y367611D01*
X1690373Y367611D02*
X1670373Y354754D01*
X1747040Y350469D02*
X1743707Y350469D01*
X1737040Y354754D01*
X1737040Y367611D01*
X1743707Y371897D01*
X1747040Y371897D01*
X1760373Y350469D02*
X1760373Y371897D01*
X1773707Y371897D01*
X1780373Y367611D01*
X1780373Y365469D01*
X1773707Y361183D01*
X1760373Y361183D01*
X1763707Y361183D02*
X1780373Y350469D01*
X1790373Y354754D02*
X1797040Y350469D01*
X1803707Y350469D01*
X1810373Y354754D01*
X1810373Y367611D01*
X1803707Y371897D01*
X1797040Y371897D01*
X1790373Y367611D01*
X1790373Y354754D01*
X1820373Y371897D02*
X1820373Y354754D01*
X1827040Y350469D01*
X1833707Y350469D01*
X1840373Y354754D01*
X1840373Y371897D01*
X1850373Y350469D02*
X1850373Y371897D01*
X1870373Y350469D01*
X1870373Y371897D01*
X1880373Y350469D02*
X1893707Y350469D01*
X1900373Y354754D01*
X1900373Y367611D01*
X1893707Y371897D01*
X1880373Y371897D01*
X1883707Y371897D02*
X1883707Y350469D01*
X1913707Y371897D02*
X1917040Y371897D01*
X1923707Y367611D01*
X1923707Y354754D01*
X1917040Y350469D01*
X1913707Y350469D01*
X903040Y395040D02*
X903040Y405040D01*
X898040Y400040D02*
X908040Y400040D01*
X1010707Y408611D02*
X1017373Y412897D01*
X1017373Y391469D01*
X1007373Y391469D02*
X1027373Y391469D01*
X1047373Y391469D02*
X1047373Y393611D01*
X1067373Y408611D02*
X1074040Y412897D01*
X1080707Y412897D01*
X1087373Y408611D01*
X1087373Y395754D01*
X1080707Y391469D01*
X1074040Y391469D01*
X1067373Y395754D01*
X1067373Y408611D01*
X1087373Y408611D02*
X1067373Y395754D01*
X1097373Y408611D02*
X1104040Y412897D01*
X1110707Y412897D01*
X1117373Y408611D01*
X1117373Y395754D01*
X1110707Y391469D01*
X1104040Y391469D01*
X1097373Y395754D01*
X1097373Y408611D01*
X1117373Y408611D02*
X1097373Y395754D01*
X1127373Y408611D02*
X1134040Y412897D01*
X1140707Y412897D01*
X1147373Y408611D01*
X1147373Y395754D01*
X1140707Y391469D01*
X1134040Y391469D01*
X1127373Y395754D01*
X1127373Y408611D01*
X1147373Y408611D02*
X1127373Y395754D01*
X1157373Y408611D02*
X1164040Y412897D01*
X1170707Y412897D01*
X1177373Y408611D01*
X1177373Y395754D01*
X1170707Y391469D01*
X1164040Y391469D01*
X1157373Y395754D01*
X1157373Y408611D01*
X1177373Y408611D02*
X1157373Y395754D01*
X1291707Y410754D02*
X1295040Y412897D01*
X1301707Y412897D01*
X1308373Y408611D01*
X1308373Y404326D01*
X1305040Y402183D01*
X1308373Y400040D01*
X1308373Y395754D01*
X1301707Y391469D01*
X1295040Y391469D01*
X1291707Y393611D01*
X1295040Y402183D02*
X1305040Y402183D01*
X1318373Y408611D02*
X1325040Y412897D01*
X1331707Y412897D01*
X1338373Y408611D01*
X1338373Y395754D01*
X1331707Y391469D01*
X1325040Y391469D01*
X1318373Y395754D01*
X1318373Y408611D01*
X1338373Y408611D02*
X1318373Y395754D01*
X1494373Y391469D02*
X1494373Y412897D01*
X1507707Y412897D01*
X1514373Y408611D01*
X1514373Y406469D01*
X1507707Y402183D01*
X1494373Y402183D01*
X1534373Y391469D02*
X1534373Y412897D01*
X1524373Y412897D02*
X1544373Y412897D01*
X1554373Y391469D02*
X1554373Y412897D01*
X1574373Y391469D02*
X1574373Y412897D01*
X1554373Y402183D02*
X1574373Y402183D01*
X1670373Y408611D02*
X1677040Y412897D01*
X1683707Y412897D01*
X1690373Y408611D01*
X1690373Y395754D01*
X1683707Y391469D01*
X1677040Y391469D01*
X1670373Y395754D01*
X1670373Y408611D01*
X1690373Y408611D02*
X1670373Y395754D01*
X1747040Y391469D02*
X1743707Y391469D01*
X1737040Y395754D01*
X1737040Y408611D01*
X1743707Y412897D01*
X1747040Y412897D01*
X1760373Y391469D02*
X1760373Y412897D01*
X1773707Y412897D01*
X1780373Y408611D01*
X1780373Y406469D01*
X1773707Y402183D01*
X1760373Y402183D01*
X1763707Y402183D02*
X1780373Y391469D01*
X1790373Y395754D02*
X1797040Y391469D01*
X1803707Y391469D01*
X1810373Y395754D01*
X1810373Y408611D01*
X1803707Y412897D01*
X1797040Y412897D01*
X1790373Y408611D01*
X1790373Y395754D01*
X1820373Y412897D02*
X1820373Y395754D01*
X1827040Y391469D01*
X1833707Y391469D01*
X1840373Y395754D01*
X1840373Y412897D01*
X1850373Y391469D02*
X1850373Y412897D01*
X1870373Y391469D01*
X1870373Y412897D01*
X1880373Y391469D02*
X1893707Y391469D01*
X1900373Y395754D01*
X1900373Y408611D01*
X1893707Y412897D01*
X1880373Y412897D01*
X1883707Y412897D02*
X1883707Y391469D01*
X1913707Y412897D02*
X1917040Y412897D01*
X1923707Y408611D01*
X1923707Y395754D01*
X1917040Y391469D01*
X1913707Y391469D01*
X1007373Y449611D02*
X1014040Y453897D01*
X1020707Y453897D01*
X1027373Y449611D01*
X1027373Y436754D01*
X1020707Y432469D01*
X1014040Y432469D01*
X1007373Y436754D01*
X1007373Y449611D01*
X1027373Y449611D02*
X1007373Y436754D01*
X1047373Y432469D02*
X1047373Y434611D01*
X1067373Y436754D02*
X1074040Y432469D01*
X1080707Y432469D01*
X1087373Y436754D01*
X1087373Y445326D01*
X1087373Y449611D01*
X1080707Y453897D01*
X1074040Y453897D01*
X1067373Y449611D01*
X1067373Y445326D01*
X1074040Y441040D01*
X1080707Y441040D01*
X1087373Y445326D01*
X1097373Y436754D02*
X1104040Y432469D01*
X1110707Y432469D01*
X1117373Y436754D01*
X1117373Y445326D01*
X1117373Y449611D01*
X1110707Y453897D01*
X1104040Y453897D01*
X1097373Y449611D01*
X1097373Y445326D01*
X1104040Y441040D01*
X1110707Y441040D01*
X1117373Y445326D01*
X1147373Y441040D02*
X1127373Y441040D01*
X1144040Y453897D01*
X1144040Y432469D01*
X1140707Y432469D02*
X1147373Y432469D01*
X1157373Y436754D02*
X1164040Y432469D01*
X1170707Y432469D01*
X1177373Y436754D01*
X1177373Y445326D01*
X1177373Y449611D01*
X1170707Y453897D01*
X1164040Y453897D01*
X1157373Y449611D01*
X1157373Y445326D01*
X1164040Y441040D01*
X1170707Y441040D01*
X1177373Y445326D01*
X1320040Y453897D02*
X1310040Y453897D01*
X1303373Y449611D01*
X1303373Y441040D01*
X1303373Y436754D01*
X1310040Y432469D01*
X1316707Y432469D01*
X1323373Y436754D01*
X1323373Y441040D01*
X1316707Y445326D01*
X1310040Y445326D01*
X1303373Y441040D01*
X1494373Y432469D02*
X1494373Y453897D01*
X1507707Y453897D01*
X1514373Y449611D01*
X1514373Y447469D01*
X1507707Y443183D01*
X1494373Y443183D01*
X1534373Y432469D02*
X1534373Y453897D01*
X1524373Y453897D02*
X1544373Y453897D01*
X1554373Y432469D02*
X1554373Y453897D01*
X1574373Y432469D02*
X1574373Y453897D01*
X1554373Y443183D02*
X1574373Y443183D01*
X1670373Y449611D02*
X1677040Y453897D01*
X1683707Y453897D01*
X1690373Y449611D01*
X1690373Y436754D01*
X1683707Y432469D01*
X1677040Y432469D01*
X1670373Y436754D01*
X1670373Y449611D01*
X1690373Y449611D02*
X1670373Y436754D01*
X1747040Y432469D02*
X1743707Y432469D01*
X1737040Y436754D01*
X1737040Y449611D01*
X1743707Y453897D01*
X1747040Y453897D01*
X1760373Y432469D02*
X1760373Y453897D01*
X1773707Y453897D01*
X1780373Y449611D01*
X1780373Y447469D01*
X1773707Y443183D01*
X1760373Y443183D01*
X1763707Y443183D02*
X1780373Y432469D01*
X1790373Y436754D02*
X1797040Y432469D01*
X1803707Y432469D01*
X1810373Y436754D01*
X1810373Y449611D01*
X1803707Y453897D01*
X1797040Y453897D01*
X1790373Y449611D01*
X1790373Y436754D01*
X1820373Y453897D02*
X1820373Y436754D01*
X1827040Y432469D01*
X1833707Y432469D01*
X1840373Y436754D01*
X1840373Y453897D01*
X1850373Y432469D02*
X1850373Y453897D01*
X1870373Y432469D01*
X1870373Y453897D01*
X1880373Y432469D02*
X1893707Y432469D01*
X1900373Y436754D01*
X1900373Y449611D01*
X1893707Y453897D01*
X1880373Y453897D01*
X1883707Y453897D02*
X1883707Y432469D01*
X1913707Y453897D02*
X1917040Y453897D01*
X1923707Y449611D01*
X1923707Y436754D01*
X1917040Y432469D01*
X1913707Y432469D01*
X1007373Y490611D02*
X1014040Y494897D01*
X1020707Y494897D01*
X1027373Y490611D01*
X1027373Y477754D01*
X1020707Y473469D01*
X1014040Y473469D01*
X1007373Y477754D01*
X1007373Y490611D01*
X1027373Y490611D02*
X1007373Y477754D01*
X1047373Y473469D02*
X1047373Y475611D01*
X1067373Y477754D02*
X1074040Y473469D01*
X1080707Y473469D01*
X1087373Y477754D01*
X1087373Y486326D01*
X1087373Y490611D01*
X1080707Y494897D01*
X1074040Y494897D01*
X1067373Y490611D01*
X1067373Y486326D01*
X1074040Y482040D01*
X1080707Y482040D01*
X1087373Y486326D01*
X1097373Y490611D02*
X1104040Y494897D01*
X1110707Y494897D01*
X1117373Y490611D01*
X1117373Y477754D01*
X1110707Y473469D01*
X1104040Y473469D01*
X1097373Y477754D01*
X1097373Y490611D01*
X1117373Y490611D02*
X1097373Y477754D01*
X1127373Y490611D02*
X1134040Y494897D01*
X1140707Y494897D01*
X1147373Y490611D01*
X1147373Y477754D01*
X1140707Y473469D01*
X1134040Y473469D01*
X1127373Y477754D01*
X1127373Y490611D01*
X1147373Y490611D02*
X1127373Y477754D01*
X1157373Y490611D02*
X1164040Y494897D01*
X1170707Y494897D01*
X1177373Y490611D01*
X1177373Y477754D01*
X1170707Y473469D01*
X1164040Y473469D01*
X1157373Y477754D01*
X1157373Y490611D01*
X1177373Y490611D02*
X1157373Y477754D01*
X1288373Y490611D02*
X1295040Y494897D01*
X1301707Y494897D01*
X1308373Y490611D01*
X1308373Y488469D01*
X1288373Y473469D01*
X1308373Y473469D01*
X1308373Y475611D01*
X1318373Y490611D02*
X1325040Y494897D01*
X1331707Y494897D01*
X1338373Y490611D01*
X1338373Y477754D01*
X1331707Y473469D01*
X1325040Y473469D01*
X1318373Y477754D01*
X1318373Y490611D01*
X1338373Y490611D02*
X1318373Y477754D01*
X1494373Y473469D02*
X1494373Y494897D01*
X1507707Y494897D01*
X1514373Y490611D01*
X1514373Y488469D01*
X1507707Y484183D01*
X1494373Y484183D01*
X1534373Y473469D02*
X1534373Y494897D01*
X1524373Y494897D02*
X1544373Y494897D01*
X1554373Y473469D02*
X1554373Y494897D01*
X1574373Y473469D02*
X1574373Y494897D01*
X1554373Y484183D02*
X1574373Y484183D01*
X1670373Y490611D02*
X1677040Y494897D01*
X1683707Y494897D01*
X1690373Y490611D01*
X1690373Y477754D01*
X1683707Y473469D01*
X1677040Y473469D01*
X1670373Y477754D01*
X1670373Y490611D01*
X1690373Y490611D02*
X1670373Y477754D01*
X1747040Y473469D02*
X1743707Y473469D01*
X1737040Y477754D01*
X1737040Y490611D01*
X1743707Y494897D01*
X1747040Y494897D01*
X1760373Y473469D02*
X1760373Y494897D01*
X1773707Y494897D01*
X1780373Y490611D01*
X1780373Y488469D01*
X1773707Y484183D01*
X1760373Y484183D01*
X1763707Y484183D02*
X1780373Y473469D01*
X1790373Y477754D02*
X1797040Y473469D01*
X1803707Y473469D01*
X1810373Y477754D01*
X1810373Y490611D01*
X1803707Y494897D01*
X1797040Y494897D01*
X1790373Y490611D01*
X1790373Y477754D01*
X1820373Y494897D02*
X1820373Y477754D01*
X1827040Y473469D01*
X1833707Y473469D01*
X1840373Y477754D01*
X1840373Y494897D01*
X1850373Y473469D02*
X1850373Y494897D01*
X1870373Y473469D01*
X1870373Y494897D01*
X1880373Y473469D02*
X1893707Y473469D01*
X1900373Y477754D01*
X1900373Y490611D01*
X1893707Y494897D01*
X1880373Y494897D01*
X1883707Y494897D02*
X1883707Y473469D01*
X1913707Y494897D02*
X1917040Y494897D01*
X1923707Y490611D01*
X1923707Y477754D01*
X1917040Y473469D01*
X1913707Y473469D01*
X1007373Y531611D02*
X1014040Y535897D01*
X1020707Y535897D01*
X1027373Y531611D01*
X1027373Y518754D01*
X1020707Y514469D01*
X1014040Y514469D01*
X1007373Y518754D01*
X1007373Y531611D01*
X1027373Y531611D02*
X1007373Y518754D01*
X1047373Y514469D02*
X1047373Y516611D01*
X1080707Y514469D02*
X1074040Y514469D01*
X1067373Y518754D01*
X1067373Y523040D01*
X1070707Y525183D01*
X1067373Y527326D01*
X1067373Y531611D01*
X1074040Y535897D01*
X1080707Y535897D01*
X1087373Y531611D01*
X1087373Y527326D01*
X1084040Y525183D01*
X1087373Y523040D01*
X1087373Y518754D01*
X1080707Y514469D01*
X1070707Y525183D02*
X1084040Y525183D01*
X1110707Y514469D02*
X1104040Y514469D01*
X1097373Y518754D01*
X1097373Y523040D01*
X1100707Y525183D01*
X1097373Y527326D01*
X1097373Y531611D01*
X1104040Y535897D01*
X1110707Y535897D01*
X1117373Y531611D01*
X1117373Y527326D01*
X1114040Y525183D01*
X1117373Y523040D01*
X1117373Y518754D01*
X1110707Y514469D01*
X1100707Y525183D02*
X1114040Y525183D01*
X1127373Y518754D02*
X1134040Y514469D01*
X1140707Y514469D01*
X1147373Y518754D01*
X1147373Y527326D01*
X1147373Y531611D01*
X1140707Y535897D01*
X1134040Y535897D01*
X1127373Y531611D01*
X1127373Y527326D01*
X1134040Y523040D01*
X1140707Y523040D01*
X1147373Y527326D01*
X1157373Y531611D02*
X1164040Y535897D01*
X1170707Y535897D01*
X1177373Y531611D01*
X1177373Y518754D01*
X1170707Y514469D01*
X1164040Y514469D01*
X1157373Y518754D01*
X1157373Y531611D01*
X1177373Y531611D02*
X1157373Y518754D01*
X1291707Y533754D02*
X1295040Y535897D01*
X1301707Y535897D01*
X1308373Y531611D01*
X1308373Y527326D01*
X1305040Y525183D01*
X1308373Y523040D01*
X1308373Y518754D01*
X1301707Y514469D01*
X1295040Y514469D01*
X1291707Y516611D01*
X1295040Y525183D02*
X1305040Y525183D01*
X1331707Y514469D02*
X1325040Y514469D01*
X1318373Y518754D01*
X1318373Y523040D01*
X1321707Y525183D01*
X1318373Y527326D01*
X1318373Y531611D01*
X1325040Y535897D01*
X1331707Y535897D01*
X1338373Y531611D01*
X1338373Y527326D01*
X1335040Y525183D01*
X1338373Y523040D01*
X1338373Y518754D01*
X1331707Y514469D01*
X1321707Y525183D02*
X1335040Y525183D01*
X1494373Y514469D02*
X1494373Y535897D01*
X1507707Y535897D01*
X1514373Y531611D01*
X1514373Y529469D01*
X1507707Y525183D01*
X1494373Y525183D01*
X1534373Y514469D02*
X1534373Y535897D01*
X1524373Y535897D02*
X1544373Y535897D01*
X1554373Y514469D02*
X1554373Y535897D01*
X1574373Y514469D02*
X1574373Y535897D01*
X1554373Y525183D02*
X1574373Y525183D01*
X1670373Y531611D02*
X1677040Y535897D01*
X1683707Y535897D01*
X1690373Y531611D01*
X1690373Y518754D01*
X1683707Y514469D01*
X1677040Y514469D01*
X1670373Y518754D01*
X1670373Y531611D01*
X1690373Y531611D02*
X1670373Y518754D01*
X1747040Y514469D02*
X1743707Y514469D01*
X1737040Y518754D01*
X1737040Y531611D01*
X1743707Y535897D01*
X1747040Y535897D01*
X1760373Y514469D02*
X1760373Y535897D01*
X1773707Y535897D01*
X1780373Y531611D01*
X1780373Y529469D01*
X1773707Y525183D01*
X1760373Y525183D01*
X1763707Y525183D02*
X1780373Y514469D01*
X1790373Y518754D02*
X1797040Y514469D01*
X1803707Y514469D01*
X1810373Y518754D01*
X1810373Y531611D01*
X1803707Y535897D01*
X1797040Y535897D01*
X1790373Y531611D01*
X1790373Y518754D01*
X1820373Y535897D02*
X1820373Y518754D01*
X1827040Y514469D01*
X1833707Y514469D01*
X1840373Y518754D01*
X1840373Y535897D01*
X1850373Y514469D02*
X1850373Y535897D01*
X1870373Y514469D01*
X1870373Y535897D01*
X1880373Y514469D02*
X1893707Y514469D01*
X1900373Y518754D01*
X1900373Y531611D01*
X1893707Y535897D01*
X1880373Y535897D01*
X1883707Y535897D02*
X1883707Y514469D01*
X1913707Y535897D02*
X1917040Y535897D01*
X1923707Y531611D01*
X1923707Y518754D01*
X1917040Y514469D01*
X1913707Y514469D01*
X1007373Y572611D02*
X1014040Y576897D01*
X1020707Y576897D01*
X1027373Y572611D01*
X1027373Y559754D01*
X1020707Y555469D01*
X1014040Y555469D01*
X1007373Y559754D01*
X1007373Y572611D01*
X1027373Y572611D02*
X1007373Y559754D01*
X1047373Y555469D02*
X1047373Y557611D01*
X1080707Y555469D02*
X1074040Y555469D01*
X1067373Y559754D01*
X1067373Y564040D01*
X1070707Y566183D01*
X1067373Y568326D01*
X1067373Y572611D01*
X1074040Y576897D01*
X1080707Y576897D01*
X1087373Y572611D01*
X1087373Y568326D01*
X1084040Y566183D01*
X1087373Y564040D01*
X1087373Y559754D01*
X1080707Y555469D01*
X1070707Y566183D02*
X1084040Y566183D01*
X1097373Y572611D02*
X1104040Y576897D01*
X1110707Y576897D01*
X1117373Y572611D01*
X1117373Y559754D01*
X1110707Y555469D01*
X1104040Y555469D01*
X1097373Y559754D01*
X1097373Y572611D01*
X1117373Y572611D02*
X1097373Y559754D01*
X1127373Y572611D02*
X1134040Y576897D01*
X1140707Y576897D01*
X1147373Y572611D01*
X1147373Y559754D01*
X1140707Y555469D01*
X1134040Y555469D01*
X1127373Y559754D01*
X1127373Y572611D01*
X1147373Y572611D02*
X1127373Y559754D01*
X1157373Y572611D02*
X1164040Y576897D01*
X1170707Y576897D01*
X1177373Y572611D01*
X1177373Y559754D01*
X1170707Y555469D01*
X1164040Y555469D01*
X1157373Y559754D01*
X1157373Y572611D01*
X1177373Y572611D02*
X1157373Y559754D01*
X1303373Y572611D02*
X1310040Y576897D01*
X1316707Y576897D01*
X1323373Y572611D01*
X1323373Y570469D01*
X1303373Y555469D01*
X1323373Y555469D01*
X1323373Y557611D01*
X1494373Y555469D02*
X1494373Y576897D01*
X1507707Y576897D01*
X1514373Y572611D01*
X1514373Y570469D01*
X1507707Y566183D01*
X1494373Y566183D01*
X1534373Y555469D02*
X1534373Y576897D01*
X1524373Y576897D02*
X1544373Y576897D01*
X1554373Y555469D02*
X1554373Y576897D01*
X1574373Y555469D02*
X1574373Y576897D01*
X1554373Y566183D02*
X1574373Y566183D01*
X1670373Y572611D02*
X1677040Y576897D01*
X1683707Y576897D01*
X1690373Y572611D01*
X1690373Y559754D01*
X1683707Y555469D01*
X1677040Y555469D01*
X1670373Y559754D01*
X1670373Y572611D01*
X1690373Y572611D02*
X1670373Y559754D01*
X1747040Y555469D02*
X1743707Y555469D01*
X1737040Y559754D01*
X1737040Y572611D01*
X1743707Y576897D01*
X1747040Y576897D01*
X1760373Y555469D02*
X1760373Y576897D01*
X1773707Y576897D01*
X1780373Y572611D01*
X1780373Y570469D01*
X1773707Y566183D01*
X1760373Y566183D01*
X1763707Y566183D02*
X1780373Y555469D01*
X1790373Y559754D02*
X1797040Y555469D01*
X1803707Y555469D01*
X1810373Y559754D01*
X1810373Y572611D01*
X1803707Y576897D01*
X1797040Y576897D01*
X1790373Y572611D01*
X1790373Y559754D01*
X1820373Y576897D02*
X1820373Y559754D01*
X1827040Y555469D01*
X1833707Y555469D01*
X1840373Y559754D01*
X1840373Y576897D01*
X1850373Y555469D02*
X1850373Y576897D01*
X1870373Y555469D01*
X1870373Y576897D01*
X1880373Y555469D02*
X1893707Y555469D01*
X1900373Y559754D01*
X1900373Y572611D01*
X1893707Y576897D01*
X1880373Y576897D01*
X1883707Y576897D02*
X1883707Y555469D01*
X1913707Y576897D02*
X1917040Y576897D01*
X1923707Y572611D01*
X1923707Y559754D01*
X1917040Y555469D01*
X1913707Y555469D01*
G54D12*
X47657Y459137D02*
X53943Y465423D01*
X47657Y465423D02*
X53943Y459137D01*
X45825Y386080D02*
G75*
D01*
G02X45825Y386080I4975J0*
G01*
X47657Y433737D02*
X53943Y440023D01*
X47657Y440023D02*
X53943Y433737D01*
X47657Y414623D02*
X53943Y408337D01*
X47657Y408337D02*
X53943Y414623D01*
X47657Y516223D02*
X53943Y509937D01*
X47657Y509937D02*
X53943Y516223D01*
X47657Y490823D02*
X53943Y484537D01*
X47657Y484537D02*
X53943Y490823D01*
X47657Y541623D02*
X53943Y535337D01*
X47657Y535337D02*
X53943Y541623D01*
X47657Y592423D02*
X53943Y586137D01*
X47657Y586137D02*
X53943Y592423D01*
X47657Y567023D02*
X53943Y560737D01*
X47657Y560737D02*
X53943Y567023D01*
X47657Y617823D02*
X53943Y611537D01*
X47657Y611537D02*
X53943Y617823D01*
X555657Y541623D02*
X561943Y535337D01*
X555657Y535337D02*
X561943Y541623D01*
X553825Y614680D02*
G75*
D01*
G02X553825Y614680I4975J0*
G01*
X555657Y567023D02*
X561943Y560737D01*
X555657Y560737D02*
X561943Y567023D01*
X555657Y592423D02*
X561943Y586137D01*
X555657Y586137D02*
X561943Y592423D01*
X555657Y490823D02*
X561943Y484537D01*
X555657Y484537D02*
X561943Y490823D01*
X555657Y516223D02*
X561943Y509937D01*
X555657Y509937D02*
X561943Y516223D01*
X555657Y465423D02*
X561943Y459137D01*
X555657Y459137D02*
X561943Y465423D01*
X555657Y414623D02*
X561943Y408337D01*
X555657Y408337D02*
X561943Y414623D01*
X555657Y440023D02*
X561943Y433737D01*
X555657Y433737D02*
X561943Y440023D01*
X555657Y389223D02*
X561943Y382937D01*
X555657Y382937D02*
X561943Y389223D01*
X296577Y582263D02*
X302863Y575977D01*
X296577Y575977D02*
X302863Y582263D01*
X296577Y556863D02*
X302863Y550577D01*
X296577Y550577D02*
X302863Y556863D01*
X271177Y582263D02*
X277463Y575977D01*
X271177Y575977D02*
X277463Y582263D01*
X243945Y579120D02*
G75*
D01*
G02X243945Y579120I4975J0*
G01*
X271177Y556863D02*
X277463Y550577D01*
X271177Y550577D02*
X277463Y556863D01*
X245777Y556863D02*
X252063Y550577D01*
X245777Y550577D02*
X252063Y556863D01*
X321977Y582263D02*
X328263Y575977D01*
X321977Y575977D02*
X328263Y582263D01*
X321977Y556863D02*
X328263Y550577D01*
X321977Y550577D02*
X328263Y556863D01*
X406505Y603504D02*
G75*
D01*
G02X406505Y603504I4975J0*
G01*
X408337Y632047D02*
X414623Y625761D01*
X408337Y625761D02*
X414623Y632047D01*
X121920Y560356D02*
X128284Y566720D01*
X121920Y573084D01*
X115556Y566720D01*
X121920Y560356D01*
X121920Y420356D02*
X128284Y426720D01*
X121920Y433084D01*
X115556Y426720D01*
X121920Y420356D01*
X20320Y324210D02*
X26684Y330574D01*
X20320Y336938D01*
X13956Y330574D01*
X20320Y324210D01*
X20320Y184210D02*
X26684Y190574D01*
X20320Y196938D01*
X13956Y190574D01*
X20320Y184210D01*
X30748Y159318D02*
X37112Y165682D01*
X30748Y172046D01*
X24384Y165682D01*
X30748Y159318D01*
X30748Y19318D02*
X37112Y25682D01*
X30748Y32046D01*
X24384Y25682D01*
X30748Y19318D01*
X60960Y21276D02*
X67324Y27640D01*
X60960Y34004D01*
X54596Y27640D01*
X60960Y21276D01*
X60960Y161276D02*
X67324Y167640D01*
X60960Y174004D01*
X54596Y167640D01*
X60960Y161276D01*
X73057Y292703D02*
X79343Y286417D01*
X73057Y286417D02*
X79343Y292703D01*
X47657Y292703D02*
X53943Y286417D01*
X47657Y286417D02*
X53943Y292703D01*
X60357Y280003D02*
X66643Y273717D01*
X60357Y273717D02*
X66643Y280003D01*
X132840Y183960D02*
X140840Y183960D01*
X136840Y190788D01*
X132840Y183960D01*
X112840Y183960D02*
X120840Y183960D01*
X116840Y190788D01*
X112840Y183960D01*
X118777Y150463D02*
X125063Y144177D01*
X118777Y144177D02*
X125063Y150463D01*
X118777Y125063D02*
X125063Y118777D01*
X118777Y118777D02*
X125063Y125063D01*
X131477Y137763D02*
X137763Y131477D01*
X131477Y131477D02*
X137763Y137763D01*
X353453Y659562D02*
X359817Y665926D01*
X353453Y672290D01*
X347089Y665926D01*
X353453Y659562D01*
X213453Y659562D02*
X219817Y665926D01*
X213453Y672290D01*
X207089Y665926D01*
X213453Y659562D01*
X353453Y623062D02*
X359817Y629426D01*
X353453Y635790D01*
X347089Y629426D01*
X353453Y623062D01*
X213453Y623062D02*
X219817Y629426D01*
X213453Y635790D01*
X207089Y629426D01*
X213453Y623062D01*
X525177Y262541D02*
X531463Y268827D01*
X525177Y268827D02*
X531463Y262541D01*
X550577Y268827D02*
X556863Y262541D01*
X550577Y262541D02*
X556863Y268827D01*
X574145Y265684D02*
G75*
D01*
G02X574145Y265684I4975J0*
G01*
X499777Y262541D02*
X506063Y268827D01*
X499777Y268827D02*
X506063Y262541D01*
X523540Y222236D02*
X529904Y228600D01*
X523540Y234964D01*
X517176Y228600D01*
X523540Y222236D01*
X523540Y82236D02*
X529904Y88600D01*
X523540Y94964D01*
X517176Y88600D01*
X523540Y82236D01*
X493060Y222236D02*
X499424Y228600D01*
X493060Y234964D01*
X486696Y228600D01*
X493060Y222236D01*
X493060Y82236D02*
X499424Y88600D01*
X493060Y94964D01*
X486696Y88600D01*
X493060Y82236D01*
X103555Y49516D02*
X109919Y55880D01*
X103555Y62244D01*
X97191Y55880D01*
X103555Y49516D01*
X138555Y49516D02*
X144919Y55880D01*
X138555Y62244D01*
X132191Y55880D01*
X138555Y49516D01*
X130059Y254138D02*
X136345Y260424D01*
X130059Y260424D02*
X136345Y254138D01*
X130059Y279538D02*
X136345Y285824D01*
X130059Y285824D02*
X136345Y279538D01*
X462280Y196836D02*
X468644Y203200D01*
X462280Y209564D01*
X455916Y203200D01*
X462280Y196836D01*
X462280Y95236D02*
X468644Y101600D01*
X462280Y107964D01*
X455916Y101600D01*
X462280Y95236D01*
X137265Y391160D02*
G75*
D01*
G02X137265Y391160I4975J0*
G01*
X113697Y388017D02*
X119983Y394303D01*
X113697Y394303D02*
X119983Y388017D01*
X898065Y441040D02*
G75*
D01*
G02X898065Y441040I4975J0*
G01*
X903040Y475676D02*
X909404Y482040D01*
X903040Y488404D01*
X896676Y482040D01*
X903040Y475676D01*
X899897Y526183D02*
X906183Y519897D01*
X899897Y519897D02*
X906183Y526183D01*
X899040Y560040D02*
X907040Y560040D01*
X903040Y566868D01*
X899040Y560040D01*
G04 ColorRGB 00FFFF for the following layer *
%LNBoard Outline*%
%LPD*%
G54D10*
G54D13*
X0Y0D02*
X600000Y0D01*
X600000Y700000D01*
X0Y700000D01*
X0Y0D01*
X600000Y0D01*
X600000Y700000D01*
X0Y700000D01*
X0Y0D01*
G04 ColorRGB 66FFCC for the following layer *
%LNLegend Description*%
%LPD*%
G54D11*
X807540Y256540D02*
X1972540Y256540D01*
X1972540Y707540D01*
X807540Y707540D01*
X807540Y256540D01*
X998540Y625540D02*
X998540Y256540D01*
X1189540Y625540D02*
X1189540Y256540D01*
X1440540Y625540D02*
X1440540Y256540D01*
X1631540Y625540D02*
X1631540Y256540D01*
X1972540Y625540D02*
X1972540Y256540D01*
X807540Y297540D02*
X1972540Y297540D01*
X807540Y338540D02*
X1972540Y338540D01*
X807540Y379540D02*
X1972540Y379540D01*
X807540Y420540D02*
X1972540Y420540D01*
X807540Y461540D02*
X1972540Y461540D01*
X807540Y502540D02*
X1972540Y502540D01*
X807540Y543540D02*
X1972540Y543540D01*
X816373Y600754D02*
X823040Y596469D01*
X829707Y596469D01*
X836373Y600754D01*
X816373Y613611D01*
X823040Y617897D01*
X829707Y617897D01*
X836373Y613611D01*
X846373Y590040D02*
X849707Y590040D01*
X866373Y611469D01*
X846373Y611469D02*
X856373Y598611D01*
X876373Y596469D02*
X876373Y609326D01*
X876373Y611469D01*
X876373Y609326D02*
X879707Y611469D01*
X883040Y611469D01*
X886373Y609326D01*
X889707Y611469D01*
X893040Y611469D01*
X896373Y609326D01*
X896373Y596469D01*
X886373Y609326D02*
X886373Y596469D01*
X906373Y600754D02*
X913040Y596469D01*
X919707Y596469D01*
X926373Y600754D01*
X926373Y605040D01*
X919707Y609326D01*
X913040Y609326D01*
X906373Y605040D01*
X906373Y617897D02*
X906373Y596469D01*
X936373Y600754D02*
X943040Y596469D01*
X949707Y596469D01*
X956373Y600754D01*
X956373Y607183D01*
X949707Y611469D01*
X943040Y611469D01*
X936373Y607183D01*
X936373Y600754D01*
X969707Y617897D02*
X969707Y600754D01*
X976373Y596469D01*
X807540Y584540D02*
X1972540Y584540D01*
X1037373Y600754D02*
X1044040Y596469D01*
X1050707Y596469D01*
X1057373Y600754D01*
X1037373Y613611D01*
X1044040Y617897D01*
X1050707Y617897D01*
X1057373Y613611D01*
X1077373Y596469D02*
X1077373Y609326D01*
X1077373Y613611D02*
X1077373Y615754D01*
X1097373Y611469D02*
X1117373Y611469D01*
X1097373Y596469D01*
X1117373Y596469D01*
X1147373Y600754D02*
X1140707Y596469D01*
X1134040Y596469D01*
X1127373Y600754D01*
X1127373Y607183D01*
X1134040Y611469D01*
X1140707Y611469D01*
X1147373Y607183D01*
X1144040Y605040D01*
X1127373Y605040D01*
X1198373Y600754D02*
X1205040Y596469D01*
X1211707Y596469D01*
X1218373Y600754D01*
X1218373Y613611D01*
X1211707Y617897D01*
X1205040Y617897D01*
X1198373Y613611D01*
X1198373Y600754D01*
X1211707Y600754D02*
X1218373Y596469D01*
X1228373Y611469D02*
X1228373Y600754D01*
X1235040Y596469D01*
X1241707Y596469D01*
X1248373Y600754D01*
X1248373Y611469D01*
X1248373Y600754D02*
X1248373Y596469D01*
X1261707Y611469D02*
X1271707Y611469D01*
X1275040Y609326D01*
X1275040Y598611D01*
X1271707Y596469D01*
X1261707Y596469D01*
X1258373Y598611D01*
X1258373Y602897D01*
X1261707Y605040D01*
X1275040Y605040D01*
X1275040Y598611D02*
X1278373Y596469D01*
X1288373Y596469D02*
X1288373Y609326D01*
X1288373Y611469D01*
X1288373Y609326D02*
X1291707Y611469D01*
X1298373Y611469D01*
X1301707Y609326D01*
X1301707Y596469D01*
X1335040Y598611D02*
X1331707Y596469D01*
X1328373Y598611D01*
X1328373Y617897D01*
X1321707Y611469D02*
X1335040Y611469D01*
X1358373Y596469D02*
X1358373Y609326D01*
X1358373Y613611D02*
X1358373Y615754D01*
X1395040Y598611D02*
X1391707Y596469D01*
X1388373Y598611D01*
X1388373Y617897D01*
X1381707Y611469D02*
X1395040Y611469D01*
X1408373Y590040D02*
X1411707Y590040D01*
X1428373Y611469D01*
X1408373Y611469D02*
X1418373Y598611D01*
X1449373Y596469D02*
X1449373Y617897D01*
X1462707Y617897D01*
X1469373Y613611D01*
X1469373Y611469D01*
X1462707Y607183D01*
X1449373Y607183D01*
X1482707Y617897D02*
X1482707Y600754D01*
X1489373Y596469D01*
X1512707Y611469D02*
X1522707Y611469D01*
X1526040Y609326D01*
X1526040Y598611D01*
X1522707Y596469D01*
X1512707Y596469D01*
X1509373Y598611D01*
X1509373Y602897D01*
X1512707Y605040D01*
X1526040Y605040D01*
X1526040Y598611D02*
X1529373Y596469D01*
X1556040Y598611D02*
X1552707Y596469D01*
X1549373Y598611D01*
X1549373Y617897D01*
X1542707Y611469D02*
X1556040Y611469D01*
X1589373Y600754D02*
X1582707Y596469D01*
X1576040Y596469D01*
X1569373Y600754D01*
X1569373Y607183D01*
X1576040Y611469D01*
X1582707Y611469D01*
X1589373Y607183D01*
X1586040Y605040D01*
X1569373Y605040D01*
X1619373Y600754D02*
X1612707Y596469D01*
X1606040Y596469D01*
X1599373Y600754D01*
X1599373Y605040D01*
X1606040Y609326D01*
X1612707Y609326D01*
X1619373Y605040D01*
X1619373Y617897D02*
X1619373Y596469D01*
X1640373Y600754D02*
X1647040Y596469D01*
X1653707Y596469D01*
X1660373Y600754D01*
X1640373Y613611D01*
X1647040Y617897D01*
X1653707Y617897D01*
X1660373Y613611D01*
X1673707Y617897D02*
X1673707Y600754D01*
X1680373Y596469D01*
X1700373Y600754D02*
X1707040Y596469D01*
X1713707Y596469D01*
X1720373Y600754D01*
X1720373Y607183D01*
X1713707Y611469D01*
X1707040Y611469D01*
X1700373Y607183D01*
X1700373Y600754D01*
X1747040Y598611D02*
X1743707Y596469D01*
X1740373Y598611D01*
X1740373Y617897D01*
X1733707Y611469D02*
X1747040Y611469D01*
X1790373Y617897D02*
X1790373Y596469D01*
X1810373Y596469D01*
X1840373Y600754D02*
X1833707Y596469D01*
X1827040Y596469D01*
X1820373Y600754D01*
X1820373Y607183D01*
X1827040Y611469D01*
X1833707Y611469D01*
X1840373Y607183D01*
X1837040Y605040D01*
X1820373Y605040D01*
X1850373Y596469D02*
X1850373Y609326D01*
X1850373Y611469D01*
X1850373Y609326D02*
X1853707Y611469D01*
X1860373Y611469D01*
X1863707Y609326D01*
X1863707Y596469D01*
X1880373Y594326D02*
X1887040Y590040D01*
X1893707Y590040D01*
X1900373Y594326D01*
X1900373Y600754D01*
X1900373Y607183D01*
X1893707Y611469D01*
X1887040Y611469D01*
X1880373Y607183D01*
X1880373Y600754D01*
X1887040Y596469D01*
X1893707Y596469D01*
X1900373Y600754D01*
X1927040Y598611D02*
X1923707Y596469D01*
X1920373Y598611D01*
X1920373Y617897D01*
X1913707Y611469D02*
X1927040Y611469D01*
X1940373Y607183D02*
X1947040Y611469D01*
X1953707Y611469D01*
X1960373Y607183D01*
X1960373Y596469D01*
X1940373Y617897D02*
X1940373Y596469D01*
X807540Y625540D02*
X1972540Y625540D01*
X1108373Y637469D02*
X1108373Y650326D01*
X1115040Y658897D01*
X1121707Y658897D01*
X1128373Y650326D01*
X1128373Y637469D01*
X1108373Y643897D02*
X1128373Y643897D01*
X1141707Y658897D02*
X1141707Y641754D01*
X1148373Y637469D01*
X1171707Y658897D02*
X1171707Y641754D01*
X1178373Y637469D01*
X1228373Y652469D02*
X1228373Y641754D01*
X1235040Y637469D01*
X1241707Y637469D01*
X1248373Y641754D01*
X1248373Y652469D01*
X1248373Y641754D02*
X1248373Y637469D01*
X1258373Y637469D02*
X1258373Y650326D01*
X1258373Y652469D01*
X1258373Y650326D02*
X1261707Y652469D01*
X1268373Y652469D01*
X1271707Y650326D01*
X1271707Y637469D01*
X1298373Y637469D02*
X1298373Y650326D01*
X1298373Y654611D02*
X1298373Y656754D01*
X1335040Y639611D02*
X1331707Y637469D01*
X1328373Y639611D01*
X1328373Y658897D01*
X1321707Y652469D02*
X1335040Y652469D01*
X1348373Y641754D02*
X1355040Y637469D01*
X1361707Y637469D01*
X1368373Y641754D01*
X1348373Y648183D01*
X1355040Y652469D01*
X1361707Y652469D01*
X1368373Y648183D01*
X1411707Y652469D02*
X1421707Y652469D01*
X1425040Y650326D01*
X1425040Y639611D01*
X1421707Y637469D01*
X1411707Y637469D01*
X1408373Y639611D01*
X1408373Y643897D01*
X1411707Y646040D01*
X1425040Y646040D01*
X1425040Y639611D02*
X1428373Y637469D01*
X1438373Y646040D02*
X1448373Y652469D01*
X1451707Y652469D01*
X1458373Y648183D01*
X1438373Y637469D02*
X1438373Y652469D01*
X1488373Y641754D02*
X1481707Y637469D01*
X1475040Y637469D01*
X1468373Y641754D01*
X1468373Y648183D01*
X1475040Y652469D01*
X1481707Y652469D01*
X1488373Y648183D01*
X1485040Y646040D01*
X1468373Y646040D01*
X1538373Y637469D02*
X1538373Y650326D01*
X1538373Y654611D02*
X1538373Y656754D01*
X1558373Y637469D02*
X1558373Y650326D01*
X1558373Y652469D01*
X1558373Y650326D02*
X1561707Y652469D01*
X1568373Y652469D01*
X1571707Y650326D01*
X1571707Y637469D01*
X1618373Y637469D02*
X1618373Y650326D01*
X1618373Y652469D01*
X1618373Y650326D02*
X1621707Y652469D01*
X1625040Y652469D01*
X1628373Y650326D01*
X1631707Y652469D01*
X1635040Y652469D01*
X1638373Y650326D01*
X1638373Y637469D01*
X1628373Y650326D02*
X1628373Y637469D01*
X1648373Y637469D02*
X1648373Y650326D01*
X1648373Y652469D01*
X1648373Y650326D02*
X1651707Y652469D01*
X1655040Y652469D01*
X1658373Y650326D01*
X1661707Y652469D01*
X1665040Y652469D01*
X1668373Y650326D01*
X1668373Y637469D01*
X1658373Y650326D02*
X1658373Y637469D01*
X807540Y666540D02*
X1972540Y666540D01*
X1213373Y678469D02*
X1226707Y678469D01*
X1233373Y682754D01*
X1233373Y695611D01*
X1226707Y699897D01*
X1213373Y699897D01*
X1216707Y699897D02*
X1216707Y678469D01*
X1243373Y687040D02*
X1253373Y693469D01*
X1256707Y693469D01*
X1263373Y689183D01*
X1243373Y678469D02*
X1243373Y693469D01*
X1283373Y678469D02*
X1283373Y691326D01*
X1283373Y695611D02*
X1283373Y697754D01*
X1306707Y699897D02*
X1306707Y682754D01*
X1313373Y678469D01*
X1336707Y699897D02*
X1336707Y682754D01*
X1343373Y678469D01*
X1393373Y699897D02*
X1393373Y678469D01*
X1413373Y678469D01*
X1443373Y682754D02*
X1436707Y678469D01*
X1430040Y678469D01*
X1423373Y682754D01*
X1423373Y689183D01*
X1430040Y693469D01*
X1436707Y693469D01*
X1443373Y689183D01*
X1440040Y687040D01*
X1423373Y687040D01*
X1453373Y676326D02*
X1460040Y672040D01*
X1466707Y672040D01*
X1473373Y676326D01*
X1473373Y682754D01*
X1473373Y689183D01*
X1466707Y693469D01*
X1460040Y693469D01*
X1453373Y689183D01*
X1453373Y682754D01*
X1460040Y678469D01*
X1466707Y678469D01*
X1473373Y682754D01*
X1503373Y682754D02*
X1496707Y678469D01*
X1490040Y678469D01*
X1483373Y682754D01*
X1483373Y689183D01*
X1490040Y693469D01*
X1496707Y693469D01*
X1503373Y689183D01*
X1500040Y687040D01*
X1483373Y687040D01*
X1513373Y678469D02*
X1513373Y691326D01*
X1513373Y693469D01*
X1513373Y691326D02*
X1516707Y693469D01*
X1523373Y693469D01*
X1526707Y691326D01*
X1526707Y678469D01*
X1563373Y682754D02*
X1556707Y678469D01*
X1550040Y678469D01*
X1543373Y682754D01*
X1543373Y687040D01*
X1550040Y691326D01*
X1556707Y691326D01*
X1563373Y687040D01*
X1563373Y699897D02*
X1563373Y678469D01*

M02*
