G04 Generated by Ultiboard 14.0 *
%FSLAX34Y34*%
%MOMM*%

%ADD10C,0.0001*%
%ADD11C,0.4000*%
%ADD12C,1.3556*%
%ADD13C,1.6088*%
%ADD14R,0.5291X0.5291*%
%ADD15C,0.9949*%
%ADD16C,1.3970*%
%ADD17C,1.5000*%
%ADD18C,1.2446*%
%ADD19C,1.4000*%
%ADD20C,1.9898*%
%ADD21C,1.5366*%
%ADD22R,1.5000X1.5000*%


G04 ColorRGB 0000FF for the following layer *
%LNCopper Bottom*%
%LPD*%
G54D10*
G54D11*
X284480Y645000D02*
X284480Y650240D01*
X320040Y685800D01*
X548640Y685800D01*
X586740Y647700D01*
X459680Y428988D02*
X458508Y430160D01*
X459680Y237820D02*
X459680Y428988D01*
X414020Y202184D02*
X413004Y203200D01*
X322580Y203200D01*
X310075Y215705D02*
X322580Y203200D01*
X213360Y629333D02*
X213360Y591806D01*
X208294Y586740D01*
X140970Y586740D01*
X119380Y608330D01*
X119380Y624840D01*
X124460Y629920D01*
X141342Y629920D01*
G36*
X128972Y629920D02*
X128972Y629920D01*
X139400Y633381D01*
X138444Y624352D01*
X128972Y629920D01*
D02*
G37*
X139400Y633381D01*
X138444Y624352D01*
X128972Y629920D01*
G36*
X213360Y616846D02*
X213360Y616846D01*
X208489Y627058D01*
X218382Y626985D01*
X213360Y616846D01*
D02*
G37*
X208489Y627058D01*
X218382Y626985D01*
X213360Y616846D01*
G36*
X402206Y203200D02*
X402206Y203200D01*
X412477Y206706D01*
X411727Y197992D01*
X402206Y203200D01*
D02*
G37*
X412477Y206706D01*
X411727Y197992D01*
X402206Y203200D01*
G36*
X546104Y615000D02*
X546104Y615000D01*
X556441Y619781D01*
X556187Y609705D01*
X546104Y615000D01*
D02*
G37*
X556441Y619781D01*
X556187Y609705D01*
X546104Y615000D01*
G36*
X549486Y487680D02*
X549486Y487680D01*
X554878Y492279D01*
X554878Y483081D01*
X549486Y487680D01*
D02*
G37*
X554878Y492279D01*
X554878Y483081D01*
X549486Y487680D01*
G36*
X568114Y436880D02*
X568114Y436880D01*
X562722Y432281D01*
X562722Y441479D01*
X568114Y436880D01*
D02*
G37*
X562722Y432281D01*
X562722Y441479D01*
X568114Y436880D01*
G36*
X569413Y389413D02*
X569413Y389413D01*
X563454Y382223D01*
X560413Y391905D01*
X569413Y389413D01*
D02*
G37*
X563454Y382223D01*
X560413Y391905D01*
X569413Y389413D01*
G36*
X306944Y585000D02*
X306944Y585000D01*
X305665Y578030D01*
X299859Y585163D01*
X306944Y585000D01*
D02*
G37*
X305665Y578030D01*
X299859Y585163D01*
X306944Y585000D01*
G36*
X306653Y547500D02*
X306653Y547500D01*
X299568Y547678D01*
X305711Y554524D01*
X306653Y547500D01*
D02*
G37*
X299568Y547678D01*
X305711Y554524D01*
X306653Y547500D01*
G36*
X283763Y585000D02*
X283763Y585000D01*
X279790Y576548D01*
X274426Y585163D01*
X283763Y585000D01*
D02*
G37*
X279790Y576548D01*
X274426Y585163D01*
X283763Y585000D01*
G36*
X270000Y541327D02*
X270000Y541327D01*
X268338Y552858D01*
X278470Y549326D01*
X270000Y541327D01*
D02*
G37*
X268338Y552858D01*
X278470Y549326D01*
X270000Y541327D01*
G36*
X237363Y547500D02*
X237363Y547500D01*
X243926Y557125D01*
X249012Y547677D01*
X237363Y547500D01*
D02*
G37*
X243926Y557125D01*
X249012Y547677D01*
X237363Y547500D01*
G36*
X330000Y571187D02*
X330000Y571187D01*
X323258Y573370D01*
X331092Y578189D01*
X330000Y571187D01*
D02*
G37*
X323258Y573370D01*
X331092Y578189D01*
X330000Y571187D01*
G36*
X412500Y614155D02*
X412500Y614155D01*
X416522Y605986D01*
X407001Y606898D01*
X412500Y614155D01*
D02*
G37*
X416522Y605986D01*
X407001Y606898D01*
X412500Y614155D01*
G36*
X402162Y619662D02*
X402162Y619662D01*
X405726Y630753D01*
X413282Y623135D01*
X402162Y619662D01*
D02*
G37*
X405726Y630753D01*
X413282Y623135D01*
X402162Y619662D01*
G36*
X127500Y437995D02*
X127500Y437995D01*
X127420Y426759D01*
X118553Y431069D01*
X127500Y437995D01*
D02*
G37*
X127420Y426759D01*
X118553Y431069D01*
X127500Y437995D01*
G36*
X20320Y199344D02*
X20320Y199344D01*
X24604Y194023D01*
X16036Y194023D01*
X20320Y199344D01*
D02*
G37*
X24604Y194023D01*
X16036Y194023D01*
X20320Y199344D01*
G36*
X67500Y38386D02*
X67500Y38386D01*
X66436Y27123D01*
X57985Y32266D01*
X67500Y38386D01*
D02*
G37*
X66436Y27123D01*
X57985Y32266D01*
X67500Y38386D01*
G36*
X60960Y158870D02*
X60960Y158870D01*
X56676Y164191D01*
X65244Y164191D01*
X60960Y158870D01*
D02*
G37*
X56676Y164191D01*
X65244Y164191D01*
X60960Y158870D01*
G36*
X82146Y285000D02*
X82146Y285000D01*
X75966Y285344D01*
X80212Y290880D01*
X82146Y285000D01*
D02*
G37*
X75966Y285344D01*
X80212Y290880D01*
X82146Y285000D01*
G36*
X40458Y285000D02*
X40458Y285000D01*
X47776Y292508D01*
X50937Y285339D01*
X40458Y285000D01*
D02*
G37*
X47776Y292508D01*
X50937Y285339D01*
X40458Y285000D01*
G36*
X414020Y186642D02*
X414020Y186642D01*
X418199Y179100D01*
X409841Y179100D01*
X414020Y186642D01*
D02*
G37*
X418199Y179100D01*
X409841Y179100D01*
X414020Y186642D01*
G36*
X403229Y232500D02*
X403229Y232500D01*
X414081Y232362D01*
X410455Y224403D01*
X403229Y232500D01*
D02*
G37*
X414081Y232362D01*
X410455Y224403D01*
X403229Y232500D01*
G36*
X142113Y134620D02*
X142113Y134620D01*
X137000Y131132D01*
X137000Y138108D01*
X142113Y134620D01*
D02*
G37*
X137000Y131132D01*
X137000Y138108D01*
X142113Y134620D01*
G36*
X134620Y142113D02*
X134620Y142113D01*
X138108Y137000D01*
X131132Y137000D01*
X134620Y142113D01*
D02*
G37*
X138108Y137000D01*
X131132Y137000D01*
X134620Y142113D01*
G36*
X403585Y436415D02*
X403585Y436415D01*
X414402Y435547D01*
X410249Y427850D01*
X403585Y436415D01*
D02*
G37*
X414402Y435547D01*
X410249Y427850D01*
X403585Y436415D01*
G36*
X425862Y430160D02*
X425862Y430160D01*
X415712Y426316D01*
X416173Y435050D01*
X425862Y430160D01*
D02*
G37*
X415712Y426316D01*
X416173Y435050D01*
X425862Y430160D01*
G36*
X187063Y337063D02*
X187063Y337063D01*
X189763Y331176D01*
X182235Y332746D01*
X187063Y337063D01*
D02*
G37*
X189763Y331176D01*
X182235Y332746D01*
X187063Y337063D01*
G36*
X174026Y427500D02*
X174026Y427500D01*
X182359Y434453D01*
X184781Y426049D01*
X174026Y427500D01*
D02*
G37*
X182359Y434453D01*
X184781Y426049D01*
X174026Y427500D01*
G36*
X523540Y219830D02*
X523540Y219830D01*
X519256Y225151D01*
X527824Y225151D01*
X523540Y219830D01*
D02*
G37*
X519256Y225151D01*
X527824Y225151D01*
X523540Y219830D01*
G36*
X487500Y239885D02*
X487500Y239885D01*
X496434Y232943D01*
X487560Y228629D01*
X487500Y239885D01*
D02*
G37*
X496434Y232943D01*
X487560Y228629D01*
X487500Y239885D01*
X414020Y187500D02*
X414020Y176784D01*
X540000Y187500D02*
X414020Y187500D01*
X547500Y195000D02*
X540000Y187500D01*
X547500Y240000D02*
X547500Y195000D01*
X555000Y247500D02*
X547500Y240000D01*
X588750Y247500D02*
X555000Y247500D01*
X592500Y251250D02*
X588750Y247500D01*
X592500Y360000D02*
X592500Y251250D01*
X585000Y367500D02*
X592500Y360000D01*
X547500Y367500D02*
X585000Y367500D01*
X540000Y375000D02*
X547500Y367500D01*
X540000Y480000D02*
X540000Y375000D01*
X547680Y487680D02*
X540000Y480000D01*
X558800Y487680D02*
X547680Y487680D01*
X307500Y217500D02*
X315000Y210000D01*
X307500Y547500D02*
X307500Y217500D01*
X305940Y547500D02*
X307500Y547500D01*
X299720Y553720D02*
X305940Y547500D01*
X568120Y436880D02*
X571880Y436880D01*
X558800Y436880D02*
X568120Y436880D01*
X571880Y436880D02*
X577500Y442500D01*
X577500Y637500D01*
X570000Y645000D01*
X315000Y645000D01*
X307500Y637500D01*
X307500Y585000D01*
X305600Y585000D02*
X299720Y579120D01*
X307500Y585000D02*
X305600Y585000D01*
X523540Y228600D02*
X523540Y218960D01*
X523540Y216040D02*
X517500Y210000D01*
X523540Y218960D02*
X523540Y216040D01*
X517500Y210000D02*
X487500Y210000D01*
X459680Y237820D01*
X458508Y430160D02*
X414020Y430160D01*
X414020Y430784D01*
X409216Y430784D01*
X397500Y442500D01*
X397500Y615000D01*
X405000Y622500D01*
X405076Y622500D02*
X411480Y628904D01*
X405000Y622500D02*
X405076Y622500D01*
X213453Y665926D02*
X203739Y675640D01*
X118110Y675640D02*
X203739Y675640D01*
X118110Y675640D02*
X88900Y646430D01*
X88900Y360680D02*
X88900Y646430D01*
X88900Y360680D02*
X91440Y358140D01*
X111760Y358140D01*
X134620Y335280D01*
X134620Y282278D01*
G36*
X134620Y295728D02*
X134620Y295728D01*
X138836Y284869D01*
X128169Y286028D01*
X134620Y295728D01*
D02*
G37*
X138836Y284869D01*
X128169Y286028D01*
X134620Y295728D01*
G36*
X204558Y674821D02*
X204558Y674821D01*
X215250Y671124D01*
X208255Y664129D01*
X204558Y674821D01*
D02*
G37*
X215250Y671124D01*
X208255Y664129D01*
X204558Y674821D01*
X409104Y232500D02*
X397500Y232500D01*
X414020Y227584D02*
X409104Y232500D01*
X397500Y232500D02*
X367140Y262860D01*
X367140Y568828D01*
X365968Y570000D01*
X330000Y570000D01*
X330000Y574240D01*
X325120Y579120D01*
X262500Y337500D02*
X187500Y337500D01*
X185420Y335420D02*
X185420Y329184D01*
X187500Y337500D02*
X185420Y335420D01*
X270000Y345000D02*
X262500Y337500D01*
X270000Y549400D02*
X270000Y345000D01*
X274320Y553720D02*
X270000Y549400D01*
X46240Y285000D02*
X50800Y289560D01*
X15000Y285000D02*
X46240Y285000D01*
X7500Y277500D02*
X15000Y285000D01*
X7500Y157500D02*
X7500Y277500D01*
X15000Y150000D02*
X7500Y157500D01*
X52500Y150000D02*
X15000Y150000D01*
X60960Y158460D02*
X52500Y150000D01*
X60960Y167640D02*
X60960Y158460D01*
X487500Y232500D02*
X487500Y615000D01*
X489160Y232500D02*
X487500Y232500D01*
X493060Y228600D02*
X489160Y232500D01*
X558800Y615000D02*
X412500Y615000D01*
X412500Y603504D01*
X558800Y614680D02*
X558800Y615000D01*
X412500Y603504D02*
X411480Y603504D01*
X20320Y200320D02*
X20320Y190574D01*
X22500Y202500D02*
X20320Y200320D01*
X75000Y202500D02*
X22500Y202500D01*
X82500Y210000D02*
X75000Y202500D01*
X82500Y285000D02*
X82500Y210000D01*
X80760Y285000D02*
X82500Y285000D01*
X76200Y289560D02*
X80760Y285000D01*
X127500Y432300D02*
X121920Y426720D01*
X127500Y540000D02*
X127500Y432300D01*
X135000Y547500D02*
X127500Y540000D01*
X242700Y547500D02*
X135000Y547500D01*
X248920Y553720D02*
X242700Y547500D01*
X280200Y585000D02*
X274320Y579120D01*
X285000Y585000D02*
X280200Y585000D01*
X285000Y645000D02*
X285000Y585000D01*
X587540Y646210D02*
X581250Y652500D01*
X587540Y400040D02*
X587540Y646210D01*
X577500Y390000D02*
X587540Y400040D01*
X570000Y390000D02*
X577500Y390000D01*
X566080Y386080D02*
X570000Y390000D01*
X558800Y386080D02*
X566080Y386080D01*
X182136Y427500D02*
X172500Y427500D01*
X185420Y430784D02*
X182136Y427500D01*
X172500Y427500D02*
X165000Y420000D01*
X165000Y150000D01*
X157500Y142500D01*
X135000Y142500D01*
X134620Y142120D02*
X134620Y134620D01*
X135000Y142500D02*
X134620Y142120D01*
X142500Y134620D02*
X142500Y105000D01*
X134620Y134620D02*
X142500Y134620D01*
X142500Y105000D02*
X135000Y97500D01*
X75000Y97500D01*
X67500Y90000D01*
X67500Y30000D01*
X65140Y27640D02*
X60960Y27640D01*
X67500Y30000D02*
X65140Y27640D01*
G54D12*
X185420Y430784D03*
X185420Y405384D03*
X185420Y379984D03*
X185420Y354584D03*
X185420Y329184D03*
X185420Y303784D03*
X185420Y278384D03*
X185420Y252984D03*
X185420Y227584D03*
X185420Y202184D03*
X185420Y176784D03*
X185420Y151384D03*
X185420Y125984D03*
X185420Y100584D03*
X185420Y75184D03*
X414020Y430784D03*
X414020Y405384D03*
X414020Y379984D03*
X414020Y354584D03*
X414020Y329184D03*
X414020Y303784D03*
X414020Y278384D03*
X414020Y252984D03*
X414020Y227584D03*
X414020Y202184D03*
X414020Y176784D03*
X414020Y151384D03*
X414020Y125984D03*
X414020Y100584D03*
X414020Y75184D03*
G54D13*
X50800Y462280D03*
X50800Y436880D03*
X50800Y411480D03*
X50800Y513080D03*
X50800Y487680D03*
X50800Y538480D03*
X50800Y589280D03*
X50800Y563880D03*
X50800Y614680D03*
X558800Y538480D03*
X558800Y563880D03*
X558800Y589280D03*
X558800Y487680D03*
X558800Y513080D03*
X558800Y462280D03*
X558800Y411480D03*
X558800Y436880D03*
X558800Y386080D03*
X299720Y579120D03*
X299720Y553720D03*
X274320Y579120D03*
X274320Y553720D03*
X248920Y553720D03*
X325120Y579120D03*
X325120Y553720D03*
X411480Y628904D03*
X528320Y265684D03*
X553720Y265684D03*
X502920Y265684D03*
X133202Y257281D03*
X133202Y282681D03*
X116840Y391160D03*
G54D14*
X50800Y386080D03*
X558800Y614680D03*
X248920Y579120D03*
X411480Y603504D03*
X579120Y265684D03*
X142240Y391160D03*
G54D15*
X48155Y383435D02*
X53445Y383435D01*
X53445Y388725D01*
X48155Y388725D01*
X48155Y383435D01*D02*
X556155Y612035D02*
X561445Y612035D01*
X561445Y617325D01*
X556155Y617325D01*
X556155Y612035D01*D02*
X246275Y576475D02*
X251565Y576475D01*
X251565Y581765D01*
X246275Y581765D01*
X246275Y576475D01*D02*
X408835Y600859D02*
X414125Y600859D01*
X414125Y606149D01*
X408835Y606149D01*
X408835Y600859D01*D02*
X576475Y263039D02*
X581765Y263039D01*
X581765Y268329D01*
X576475Y268329D01*
X576475Y263039D01*D02*
X139595Y388515D02*
X144885Y388515D01*
X144885Y393805D01*
X139595Y393805D01*
X139595Y388515D01*D02*
G54D16*
X153670Y615950D03*
X153670Y641350D03*
X140970Y628650D03*
G54D17*
X121920Y566720D03*
X121920Y426720D03*
X20320Y330574D03*
X20320Y190574D03*
X30748Y165682D03*
X30748Y25682D03*
X60960Y27640D03*
X60960Y167640D03*
X353453Y665926D03*
X213453Y665926D03*
X353453Y629426D03*
X213453Y629426D03*
X523540Y228600D03*
X523540Y88600D03*
X493060Y228600D03*
X493060Y88600D03*
X103555Y55880D03*
X138555Y55880D03*
X462280Y101600D03*
G54D18*
X76200Y289560D03*
X50800Y289560D03*
X63500Y276860D03*
X121920Y147320D03*
X121920Y121920D03*
X134620Y134620D03*
G54D19*
X136840Y187960D03*
X116840Y187960D03*
G54D20*
X569595Y158115D03*
X569595Y132715D03*
X569595Y183515D03*
G54D21*
X472440Y35560D03*
X447040Y35560D03*
G54D22*
X462280Y203200D03*

M02*
